<svg version="1.1" viewBox="0.0 0.0 960.0 540.0" fill="none" stroke="none" stroke-linecap="square" stroke-miterlimit="10" xmlns:xlink="http://www.w3.org/1999/xlink" xmlns="http://www.w3.org/2000/svg"><clipPath id="g8dd6b0d16a_3_0.0"><path d="m0 0l960.0 0l0 540.0l-960.0 0l0 -540.0z" clip-rule="nonzero"/></clipPath><g clip-path="url(#g8dd6b0d16a_3_0.0)"><path fill="#ffffff" d="m0 0l960.0 0l0 540.0l-960.0 0z" fill-rule="evenodd"/><path fill="#000000" fill-opacity="0.0" d="m323.53937 399.2546l210.2677 0l0 53.51181l-210.2677 0z" fill-rule="evenodd"/><path fill="#000000" d="m356.98862 426.1746l0 -5.453125q0 -1.671875 -1.65625 -1.671875q-1.28125 0 -2.046875 1.0625l0 6.0625l-2.375 0l0 -9.015625l2.375 0l0 1.1875q0.421875 -0.53125 1.21875 -0.96875q0.8125 -0.4375 1.9375 -0.4375q1.484375 0 2.203125 0.78125q0.71875 0.765625 0.71875 2.09375l0 6.359375l-2.375 0zm4.7863464 0l0 -12.4375l5.8125 0q1.90625 0 3.046875 1.109375q1.140625 1.109375 1.140625 2.890625q0 1.78125 -1.171875 2.90625q-1.15625 1.109375 -3.015625 1.109375l-3.171875 0l0 4.421875l-2.640625 0zm5.46875 -6.75q0.78125 0 1.296875 -0.453125q0.53125 -0.453125 0.53125 -1.234375q0 -0.78125 -0.53125 -1.21875q-0.515625 -0.453125 -1.296875 -0.453125l-2.828125 0l0 3.359375l2.828125 0zm12.219635 6.75l0 -5.484375q0 -1.640625 -1.6875 -1.640625q-1.234375 0 -2.046875 1.0625l0 6.0625l-2.375 0l0 -12.4375l2.375 0l0 4.609375q0.421875 -0.53125 1.234375 -0.96875q0.8125 -0.4375 1.9375 -0.4375q1.484375 0 2.203125 0.765625q0.71875 0.75 0.71875 2.0625l0 6.40625l-2.359375 0zm10.117493 0l0 -0.9375q-0.984375 1.15625 -2.84375 1.15625q-1.3125 0 -2.234375 -0.828125q-0.90625 -0.828125 -0.90625 -2.15625q0 -1.3125 0.859375 -2.109375q0.875 -0.796875 2.28125 -0.796875q1.9375 0 2.84375 1.09375l0 -1.203125q0 -0.6875 -0.546875 -1.09375q-0.53125 -0.421875 -1.421875 -0.421875q-1.5 0 -2.625 1.0625l-0.90625 -1.578125q1.640625 -1.421875 3.9375 -1.421875q1.90625 0 2.921875 0.890625q1.015625 0.875 1.015625 2.515625l0 5.828125l-2.375 0zm-1.890625 -1.375q1.296875 0 1.890625 -0.796875l0 -1.109375q-0.59375 -0.78125 -1.890625 -0.78125q-0.71875 0 -1.21875 0.359375q-0.484375 0.34375 -0.484375 1.0q0 0.625 0.484375 0.984375q0.5 0.34375 1.21875 0.34375zm9.864716 1.59375q-1.171875 0 -2.25 -0.359375q-1.078125 -0.375 -1.78125 -1.03125l1.03125 -1.65625q0.53125 0.5 1.421875 0.859375q0.90625 0.359375 1.6875 0.359375q1.515625 0 1.515625 -0.96875q0 -0.375 -0.40625 -0.5625q-0.390625 -0.1875 -0.96875 -0.3125l-1.296875 -0.265625q-2.6875 -0.578125 -2.6875 -2.6875q0 -1.25 1.03125 -2.03125q1.046875 -0.796875 2.671875 -0.796875q2.109375 0 3.625 1.234375l-0.9375 1.625q-0.421875 -0.4375 -1.125 -0.734375q-0.703125 -0.3125 -1.546875 -0.3125q-0.65625 0 -1.046875 0.265625q-0.375 0.25 -0.375 0.625q0 0.34375 0.390625 0.515625q0.390625 0.15625 0.984375 0.28125q0.609375 0.125 1.296875 0.28125q0.6875 0.15625 1.28125 0.46875q0.59375 0.3125 0.984375 0.859375q0.40625 0.546875 0.40625 1.453125q0 1.3125 -1.078125 2.109375q-1.0625 0.78125 -2.828125 0.78125zm9.883423 0q-2.125 0 -3.46875 -1.3125q-1.34375 -1.3125 -1.34375 -3.421875q0 -2.015625 1.328125 -3.359375q1.34375 -1.359375 3.34375 -1.359375q1.984375 0 3.25 1.375q1.265625 1.359375 1.265625 3.59375l0 0.515625l-6.703125 0q0.109375 0.859375 0.765625 1.484375q0.671875 0.609375 1.828125 0.609375q0.5625 0 1.25 -0.234375q0.6875 -0.234375 1.15625 -0.671875l1.046875 1.53125q-0.671875 0.625 -1.671875 0.9375q-0.984375 0.3125 -2.046875 0.3125zm2.078125 -5.578125q-0.0625 -0.890625 -0.6875 -1.4375q-0.609375 -0.546875 -1.53125 -0.546875q-0.9375 0 -1.53125 0.5625q-0.59375 0.5625 -0.6875 1.421875l4.4375 0zm23.738647 5.359375l0 -0.9375q-0.984375 1.15625 -2.84375 1.15625q-1.3125 0 -2.234375 -0.828125q-0.90625 -0.828125 -0.90625 -2.15625q0 -1.3125 0.859375 -2.109375q0.875 -0.796875 2.28125 -0.796875q1.9375 0 2.84375 1.09375l0 -1.203125q0 -0.6875 -0.546875 -1.09375q-0.53125 -0.421875 -1.421875 -0.421875q-1.5 0 -2.625 1.0625l-0.90625 -1.578125q1.640625 -1.421875 3.9375 -1.421875q1.90625 0 2.921875 0.890625q1.015625 0.875 1.015625 2.515625l0 5.828125l-2.375 0zm-1.890625 -1.375q1.296875 0 1.890625 -0.796875l0 -1.109375q-0.59375 -0.78125 -1.890625 -0.78125q-0.71875 0 -1.21875 0.359375q-0.484375 0.34375 -0.484375 1.0q0 0.625 0.484375 0.984375q0.5 0.34375 1.21875 0.34375zm6.6147156 1.375l0 -12.4375l2.375 0l0 12.4375l-2.375 0zm8.423157 3.65625q-1.1875 0 -2.109375 -0.296875q-0.921875 -0.296875 -1.78125 -1.046875l1.0625 -1.71875q1.015625 1.125 2.828125 1.125q1.171875 0 1.8125 -0.609375q0.65625 -0.59375 0.65625 -1.671875l0 -0.90625q-1.125 1.40625 -2.765625 1.40625q-1.8125 0 -2.90625 -1.234375q-1.078125 -1.234375 -1.078125 -3.34375q0 -2.09375 1.078125 -3.34375q1.078125 -1.25 2.90625 -1.25q1.6875 0 2.765625 1.375l0 -1.15625l2.390625 0l0 8.40625q0 2.046875 -1.265625 3.15625q-1.265625 1.109375 -3.59375 1.109375zm0.4375 -5.828125q0.59375 0 1.15625 -0.296875q0.578125 -0.296875 0.875 -0.71875l0 -2.90625q-0.296875 -0.453125 -0.875 -0.734375q-0.5625 -0.296875 -1.15625 -0.296875q-1.0 0 -1.640625 0.65625q-0.625 0.640625 -0.625 1.828125q0 1.171875 0.625 1.828125q0.640625 0.640625 1.640625 0.640625zm10.960785 2.390625q-2.09375 0 -3.4375 -1.34375q-1.328125 -1.34375 -1.328125 -3.390625q0 -2.046875 1.328125 -3.375q1.34375 -1.34375 3.4375 -1.34375q2.078125 0 3.421875 1.34375q1.34375 1.328125 1.34375 3.375q0 2.078125 -1.34375 3.40625q-1.34375 1.328125 -3.421875 1.328125zm0 -2.109375q1.015625 0 1.65625 -0.734375q0.65625 -0.734375 0.65625 -1.890625q0 -1.125 -0.65625 -1.859375q-0.640625 -0.75 -1.65625 -0.75q-1.0 0 -1.65625 0.71875q-0.640625 0.71875 -0.640625 1.890625q0 1.1875 0.640625 1.90625q0.65625 0.71875 1.65625 0.71875zm6.5212097 1.890625l0 -9.015625l2.375 0l0 1.234375q0.484375 -0.59375 1.25 -1.015625q0.78125 -0.4375 1.625 -0.4375l0 2.3125l-0.65625 -0.0625q-0.640625 0 -1.28125 0.3125q-0.640625 0.296875 -0.9375 0.71875l0 5.953125l-2.375 0zm7.8881226 -9.984375q-0.578125 0 -1.0 -0.40625q-0.40625 -0.40625 -0.40625 -1.015625q0 -0.59375 0.40625 -0.984375q0.421875 -0.40625 1.0 -0.40625q0.609375 0 1.015625 0.40625q0.40625 0.390625 0.40625 0.984375q0 0.609375 -0.40625 1.015625q-0.40625 0.40625 -1.015625 0.40625zm-1.171875 9.984375l0 -9.015625l2.375 0l0 9.015625l-2.375 0zm7.7512817 0.21875q-2.5625 0 -2.5625 -2.453125l0 -4.703125l-1.484375 0l0 -2.078125l1.484375 0l0 -2.453125l2.390625 0l0 2.453125l1.828125 0l0 2.078125l-1.828125 0l0 4.0625q0 0.4375 0.203125 0.71875q0.21875 0.265625 0.609375 0.265625q0.5625 0 0.828125 -0.25l0.5 1.78125q-0.609375 0.578125 -1.96875 0.578125zm9.383942 -0.21875l0 -5.484375q0 -1.640625 -1.6875 -1.640625q-1.234375 0 -2.046875 1.0625l0 6.0625l-2.375 0l0 -12.4375l2.375 0l0 4.609375q0.421875 -0.53125 1.234375 -0.96875q0.8125 -0.4375 1.9375 -0.4375q1.484375 0 2.203125 0.765625q0.71875 0.75 0.71875 2.0625l0 6.40625l-2.359375 0zm15.883118 0l0 -5.6875q0 -1.4375 -1.34375 -1.4375q-0.625 0 -1.109375 0.34375q-0.484375 0.328125 -0.75 0.703125l0 6.078125l-2.390625 0l0 -5.6875q0 -1.4375 -1.34375 -1.4375q-0.609375 0 -1.109375 0.34375q-0.484375 0.34375 -0.75 0.71875l0 6.0625l-2.375 0l0 -9.015625l2.375 0l0 1.1875q0.3125 -0.515625 1.171875 -0.953125q0.875 -0.453125 1.78125 -0.453125q1.953125 0 2.5 1.640625q0.421875 -0.6875 1.28125 -1.15625q0.859375 -0.484375 1.8125 -0.484375q2.640625 0 2.640625 2.71875l0 6.515625l-2.390625 0z" fill-rule="nonzero"/><path fill="#ffffff" d="m342.39108 361.70642l0 0c0 -18.969025 15.377411 -34.346436 34.346436 -34.346436l84.409454 0l0 0c9.109253 0 17.845398 3.6186218 24.286621 10.059845c6.441223 6.4411926 10.059845 15.177368 10.059845 24.28659l0 0l0 0c0 18.969025 -15.377441 34.346466 -34.346466 34.346466l-84.409454 0c-18.969025 0 -34.346436 -15.377441 -34.346436 -34.346466z" fill-rule="evenodd"/><path stroke="#9900ff" stroke-width="3.0" stroke-linejoin="round" stroke-linecap="butt" d="m342.39108 361.70642l0 0c0 -18.969025 15.377411 -34.346436 34.346436 -34.346436l84.409454 0l0 0c9.109253 0 17.845398 3.6186218 24.286621 10.059845c6.441223 6.4411926 10.059845 15.177368 10.059845 24.28659l0 0l0 0c0 18.969025 -15.377441 34.346466 -34.346466 34.346466l-84.409454 0c-18.969025 0 -34.346436 -15.377441 -34.346436 -34.346466z" fill-rule="evenodd"/><path fill="#000000" fill-opacity="0.0" d="m342.3596 320.74573l156.40945 0l0 75.3071l-156.40945 0z" fill-rule="evenodd"/><path fill="#666666" d="m371.39786 347.66574l0 -5.21875l-5.875 0l0 5.21875l-2.640625 0l0 -12.4375l2.640625 0l0 4.875l5.875 0l0 -4.875l2.671875 0l0 12.4375l-2.671875 0zm9.293976 0.21875q-2.125 0 -3.46875 -1.3125q-1.34375 -1.3125 -1.34375 -3.421875q0 -2.015625 1.328125 -3.359375q1.34375 -1.359375 3.34375 -1.359375q1.984375 0 3.25 1.375q1.265625 1.359375 1.265625 3.59375l0 0.515625l-6.703125 0q0.109375 0.859375 0.765625 1.484375q0.671875 0.609375 1.828125 0.609375q0.5625 0 1.25 -0.234375q0.6875 -0.234375 1.15625 -0.671875l1.046875 1.53125q-0.671875 0.625 -1.671875 0.9375q-0.984375 0.3125 -2.046875 0.3125zm2.078125 -5.578125q-0.0625 -0.890625 -0.6875 -1.4375q-0.609375 -0.546875 -1.53125 -0.546875q-0.9375 0 -1.53125 0.5625q-0.59375 0.5625 -0.6875 1.421875l4.4375 0zm7.0356445 5.578125q-2.5625 0 -2.5625 -2.453125l0 -4.703125l-1.484375 0l0 -2.078125l1.484375 0l0 -2.453125l2.390625 0l0 2.453125l1.828125 0l0 2.078125l-1.828125 0l0 4.0625q0 0.4375 0.203125 0.71875q0.21875 0.265625 0.609375 0.265625q0.5625 0 0.828125 -0.25l0.5 1.78125q-0.609375 0.578125 -1.96875 0.578125zm7.5089417 0q-2.125 0 -3.46875 -1.3125q-1.34375 -1.3125 -1.34375 -3.421875q0 -2.015625 1.328125 -3.359375q1.34375 -1.359375 3.34375 -1.359375q1.984375 0 3.25 1.375q1.265625 1.359375 1.265625 3.59375l0 0.515625l-6.703125 0q0.109375 0.859375 0.765625 1.484375q0.671875 0.609375 1.828125 0.609375q0.5625 0 1.25 -0.234375q0.6875 -0.234375 1.15625 -0.671875l1.046875 1.53125q-0.671875 0.625 -1.671875 0.9375q-0.984375 0.3125 -2.046875 0.3125zm2.078125 -5.578125q-0.0625 -0.890625 -0.6875 -1.4375q-0.609375 -0.546875 -1.53125 -0.546875q-0.9375 0 -1.53125 0.5625q-0.59375 0.5625 -0.6875 1.421875l4.4375 0zm4.004425 5.359375l0 -9.015625l2.375 0l0 1.234375q0.484375 -0.59375 1.25 -1.015625q0.78125 -0.4375 1.625 -0.4375l0 2.3125l-0.65625 -0.0625q-0.640625 0 -1.28125 0.3125q-0.640625 0.296875 -0.9375 0.71875l0 5.953125l-2.375 0zm10.903748 0.21875q-2.09375 0 -3.4375 -1.34375q-1.328125 -1.34375 -1.328125 -3.390625q0 -2.046875 1.328125 -3.375q1.34375 -1.34375 3.4375 -1.34375q2.078125 0 3.421875 1.34375q1.34375 1.328125 1.34375 3.375q0 2.078125 -1.34375 3.40625q-1.34375 1.328125 -3.421875 1.328125zm0 -2.109375q1.015625 0 1.65625 -0.734375q0.65625 -0.734375 0.65625 -1.890625q0 -1.125 -0.65625 -1.859375q-0.640625 -0.75 -1.65625 -0.75q-1.0 0 -1.65625 0.71875q-0.640625 0.71875 -0.640625 1.890625q0 1.1875 0.640625 1.90625q0.65625 0.71875 1.65625 0.71875zm6.130554 1.890625l0 -1.765625l4.0625 -5.171875l-4.0625 0l0 -2.078125l7.28125 0l0 1.71875l-4.125 5.21875l4.203125 0l0 2.078125l-7.359375 0zm9.37384 1.40625q0.296875 0.140625 0.734375 0.140625q0.953125 0 1.25 -0.65625l0.34375 -0.765625l-3.65625 -9.140625l2.53125 0l2.359375 6.265625l2.34375 -6.265625l2.5625 0l-4.234375 10.484375q-0.515625 1.28125 -1.390625 1.71875q-0.875 0.453125 -2.03125 0.46875q-0.65625 0 -1.171875 -0.125l0.359375 -2.125zm13.226929 2.25q-1.1875 0 -2.109375 -0.296875q-0.921875 -0.296875 -1.78125 -1.046875l1.0625 -1.71875q1.015625 1.125 2.828125 1.125q1.171875 0 1.8125 -0.609375q0.65625 -0.59375 0.65625 -1.671875l0 -0.90625q-1.125 1.40625 -2.765625 1.40625q-1.8125 0 -2.90625 -1.234375q-1.078125 -1.234375 -1.078125 -3.34375q0 -2.09375 1.078125 -3.34375q1.078125 -1.25 2.90625 -1.25q1.6875 0 2.765625 1.375l0 -1.15625l2.390625 0l0 8.40625q0 2.046875 -1.265625 3.15625q-1.265625 1.109375 -3.59375 1.109375zm0.4375 -5.828125q0.59375 0 1.15625 -0.296875q0.578125 -0.296875 0.875 -0.71875l0 -2.90625q-0.296875 -0.453125 -0.875 -0.734375q-0.5625 -0.296875 -1.15625 -0.296875q-1.0 0 -1.640625 0.65625q-0.625 0.640625 -0.625 1.828125q0 1.171875 0.625 1.828125q0.640625 0.640625 1.640625 0.640625zm10.960785 2.390625q-2.09375 0 -3.4375 -1.34375q-1.328125 -1.34375 -1.328125 -3.390625q0 -2.046875 1.328125 -3.375q1.34375 -1.34375 3.4375 -1.34375q2.078125 0 3.421875 1.34375q1.34375 1.328125 1.34375 3.375q0 2.078125 -1.34375 3.40625q-1.34375 1.328125 -3.421875 1.328125zm0 -2.109375q1.015625 0 1.65625 -0.734375q0.65625 -0.734375 0.65625 -1.890625q0 -1.125 -0.65625 -1.859375q-0.640625 -0.75 -1.65625 -0.75q-1.0 0 -1.65625 0.71875q-0.640625 0.71875 -0.640625 1.890625q0 1.1875 0.640625 1.90625q0.65625 0.71875 1.65625 0.71875zm12.599304 1.890625l0 -1.140625q-1.203125 1.359375 -3.171875 1.359375q-1.484375 0 -2.203125 -0.75q-0.703125 -0.75 -0.703125 -2.078125l0 -6.40625l2.375 0l0 5.46875q0 1.65625 1.65625 1.65625q1.21875 0 2.046875 -1.015625l0 -6.109375l2.375 0l0 9.015625l-2.375 0zm7.9738464 0.21875q-1.171875 0 -2.25 -0.359375q-1.078125 -0.375 -1.78125 -1.03125l1.03125 -1.65625q0.53125 0.5 1.421875 0.859375q0.90625 0.359375 1.6875 0.359375q1.515625 0 1.515625 -0.96875q0 -0.375 -0.40625 -0.5625q-0.390625 -0.1875 -0.96875 -0.3125l-1.296875 -0.265625q-2.6875 -0.578125 -2.6875 -2.6875q0 -1.25 1.03125 -2.03125q1.046875 -0.796875 2.671875 -0.796875q2.109375 0 3.625 1.234375l-0.9375 1.625q-0.421875 -0.4375 -1.125 -0.734375q-0.703125 -0.3125 -1.546875 -0.3125q-0.65625 0 -1.046875 0.265625q-0.375 0.25 -0.375 0.625q0 0.34375 0.390625 0.515625q0.390625 0.15625 0.984375 0.28125q0.609375 0.125 1.296875 0.28125q0.6875 0.15625 1.28125 0.46875q0.59375 0.3125 0.984375 0.859375q0.40625 0.546875 0.40625 1.453125q0 1.3125 -1.078125 2.109375q-1.0625 0.78125 -2.828125 0.78125z" fill-rule="nonzero"/><path fill="#666666" d="m372.4439 369.8845q-3.328125 0 -5.265625 -1.96875l1.4375 -2.015625q0.65625 0.6875 1.65625 1.1875q1.015625 0.484375 2.296875 0.484375q1.109375 0 1.640625 -0.40625q0.53125 -0.421875 0.53125 -0.96875q0 -0.5625 -0.625 -0.875q-0.609375 -0.328125 -2.96875 -0.875q-3.578125 -0.859375 -3.578125 -3.625q0 -1.609375 1.296875 -2.6875q1.296875 -1.09375 3.421875 -1.09375q2.96875 0 4.859375 1.734375l-1.484375 1.9375q-1.46875 -1.359375 -3.609375 -1.359375q-0.859375 0 -1.328125 0.34375q-0.453125 0.34375 -0.453125 0.90625q0 0.484375 0.53125 0.75q0.53125 0.265625 1.34375 0.453125l1.71875 0.4375q3.5625 0.90625 3.5625 3.65625q0 1.84375 -1.328125 2.921875q-1.328125 1.0625 -3.65625 1.0625zm15.350006 -0.21875l-5.9375 -8.109375l0 8.109375l-2.640625 0l0 -12.4375l2.71875 0l5.765625 7.8125l0 -7.8125l2.65625 0l0 12.4375l-2.5625 0zm5.022278 0l0 -12.4375l5.8125 0q1.90625 0 3.046875 1.109375q1.140625 1.109375 1.140625 2.890625q0 1.78125 -1.171875 2.90625q-1.15625 1.109375 -3.015625 1.109375l-3.171875 0l0 4.421875l-2.640625 0zm5.46875 -6.75q0.78125 0 1.296875 -0.453125q0.53125 -0.453125 0.53125 -1.234375q0 -0.78125 -0.53125 -1.21875q-0.515625 -0.453125 -1.296875 -0.453125l-2.828125 0l0 3.359375l2.828125 0zm9.36026 6.96875q-1.171875 0 -2.25 -0.359375q-1.078125 -0.375 -1.78125 -1.03125l1.03125 -1.65625q0.53125 0.5 1.421875 0.859375q0.90625 0.359375 1.6875 0.359375q1.515625 0 1.515625 -0.96875q0 -0.375 -0.40625 -0.5625q-0.390625 -0.1875 -0.96875 -0.3125l-1.296875 -0.265625q-2.6875 -0.578125 -2.6875 -2.6875q0 -1.25 1.03125 -2.03125q1.046875 -0.796875 2.671875 -0.796875q2.109375 0 3.625 1.234375l-0.9375 1.625q-0.421875 -0.4375 -1.125 -0.734375q-0.703125 -0.3125 -1.546875 -0.3125q-0.65625 0 -1.046875 0.265625q-0.375 0.25 -0.375 0.625q0 0.34375 0.390625 0.515625q0.390625 0.15625 0.984375 0.28125q0.609375 0.125 1.296875 0.28125q0.6875 0.15625 1.28125 0.46875q0.59375 0.3125 0.984375 0.859375q0.40625 0.546875 0.40625 1.453125q0 1.3125 -1.078125 2.109375q-1.0625 0.78125 -2.828125 0.78125zm11.596893 -10.203125q-0.578125 0 -1.0 -0.40625q-0.40625 -0.40625 -0.40625 -1.015625q0 -0.59375 0.40625 -0.984375q0.421875 -0.40625 1.0 -0.40625q0.609375 0 1.015625 0.40625q0.40625 0.390625 0.40625 0.984375q0 0.609375 -0.40625 1.015625q-0.40625 0.40625 -1.015625 0.40625zm-1.171875 9.984375l0 -9.015625l2.375 0l0 9.015625l-2.375 0zm10.798157 0l0 -5.453125q0 -1.671875 -1.65625 -1.671875q-1.28125 0 -2.046875 1.0625l0 6.0625l-2.375 0l0 -9.015625l2.375 0l0 1.1875q0.421875 -0.53125 1.21875 -0.96875q0.8125 -0.4375 1.9375 -0.4375q1.484375 0 2.203125 0.78125q0.71875 0.765625 0.71875 2.09375l0 6.359375l-2.375 0zm9.499847 0l0 -12.4375l2.375 0l0 12.4375l-2.375 0zm8.907532 0.21875q-2.09375 0 -3.4375 -1.34375q-1.328125 -1.34375 -1.328125 -3.390625q0 -2.046875 1.328125 -3.375q1.34375 -1.34375 3.4375 -1.34375q2.078125 0 3.421875 1.34375q1.34375 1.328125 1.34375 3.375q0 2.078125 -1.34375 3.40625q-1.34375 1.328125 -3.421875 1.328125zm0 -2.109375q1.015625 0 1.65625 -0.734375q0.65625 -0.734375 0.65625 -1.890625q0 -1.125 -0.65625 -1.859375q-0.640625 -0.75 -1.65625 -0.75q-1.0 0 -1.65625 0.71875q-0.640625 0.71875 -0.640625 1.890625q0 1.1875 0.640625 1.90625q0.65625 0.71875 1.65625 0.71875zm12.599335 1.890625l0 -5.453125q0 -1.671875 -1.65625 -1.671875q-1.28125 0 -2.046875 1.0625l0 6.0625l-2.375 0l0 -9.015625l2.375 0l0 1.1875q0.421875 -0.53125 1.21875 -0.96875q0.8125 -0.4375 1.9375 -0.4375q1.484375 0 2.203125 0.78125q0.71875 0.765625 0.71875 2.09375l0 6.359375l-2.375 0zm8.426971 3.65625q-1.1875 0 -2.109375 -0.296875q-0.921875 -0.296875 -1.78125 -1.046875l1.0625 -1.71875q1.015625 1.125 2.828125 1.125q1.171875 0 1.8125 -0.609375q0.65625 -0.59375 0.65625 -1.671875l0 -0.90625q-1.125 1.40625 -2.765625 1.40625q-1.8125 0 -2.90625 -1.234375q-1.078125 -1.234375 -1.078125 -3.34375q0 -2.09375 1.078125 -3.34375q1.078125 -1.25 2.90625 -1.25q1.6875 0 2.765625 1.375l0 -1.15625l2.390625 0l0 8.40625q0 2.046875 -1.265625 3.15625q-1.265625 1.109375 -3.59375 1.109375zm0.4375 -5.828125q0.59375 0 1.15625 -0.296875q0.578125 -0.296875 0.875 -0.71875l0 -2.90625q-0.296875 -0.453125 -0.875 -0.734375q-0.5625 -0.296875 -1.15625 -0.296875q-1.0 0 -1.640625 0.65625q-0.625 0.640625 -0.625 1.828125q0 1.171875 0.625 1.828125q0.640625 0.640625 1.640625 0.640625z" fill-rule="nonzero"/><path fill="#666666" d="m398.23862 391.66574l0 -9.015625l2.375 0l0 1.234375q0.484375 -0.59375 1.25 -1.015625q0.78125 -0.4375 1.625 -0.4375l0 2.3125l-0.65625 -0.0625q-0.640625 0 -1.28125 0.3125q-0.640625 0.296875 -0.9375 0.71875l0 5.953125l-2.375 0zm10.950623 0.21875q-2.125 0 -3.46875 -1.3125q-1.34375 -1.3125 -1.34375 -3.421875q0 -2.015625 1.328125 -3.359375q1.34375 -1.359375 3.34375 -1.359375q1.984375 0 3.25 1.375q1.265625 1.359375 1.265625 3.59375l0 0.515625l-6.703125 0q0.109375 0.859375 0.765625 1.484375q0.671875 0.609375 1.828125 0.609375q0.5625 0 1.25 -0.234375q0.6875 -0.234375 1.15625 -0.671875l1.046875 1.53125q-0.671875 0.625 -1.671875 0.9375q-0.984375 0.3125 -2.046875 0.3125zm2.078125 -5.578125q-0.0625 -0.890625 -0.6875 -1.4375q-0.609375 -0.546875 -1.53125 -0.546875q-0.9375 0 -1.53125 0.5625q-0.59375 0.5625 -0.6875 1.421875l4.4375 0zm9.410675 5.359375l0 -0.9375q-0.984375 1.15625 -2.84375 1.15625q-1.3125 0 -2.234375 -0.828125q-0.90625 -0.828125 -0.90625 -2.15625q0 -1.3125 0.859375 -2.109375q0.875 -0.796875 2.28125 -0.796875q1.9375 0 2.84375 1.09375l0 -1.203125q0 -0.6875 -0.546875 -1.09375q-0.53125 -0.421875 -1.421875 -0.421875q-1.5 0 -2.625 1.0625l-0.90625 -1.578125q1.640625 -1.421875 3.9375 -1.421875q1.90625 0 2.921875 0.890625q1.015625 0.875 1.015625 2.515625l0 5.828125l-2.375 0zm-1.890625 -1.375q1.296875 0 1.890625 -0.796875l0 -1.109375q-0.59375 -0.78125 -1.890625 -0.78125q-0.71875 0 -1.21875 0.359375q-0.484375 0.34375 -0.484375 1.0q0 0.625 0.484375 0.984375q0.5 0.34375 1.21875 0.34375zm12.817841 1.375l0 -1.15625q-1.125 1.375 -2.78125 1.375q-1.796875 0 -2.90625 -1.28125q-1.09375 -1.28125 -1.09375 -3.4375q0 -2.125 1.09375 -3.421875q1.109375 -1.3125 2.90625 -1.3125q1.6875 0 2.78125 1.375l0 -4.578125l2.375 0l0 12.4375l-2.375 0zm-2.0625 -1.890625q0.59375 0 1.171875 -0.28125q0.59375 -0.296875 0.890625 -0.734375l0 -3.1875q-0.296875 -0.453125 -0.890625 -0.734375q-0.578125 -0.296875 -1.171875 -0.296875q-1.0 0 -1.640625 0.734375q-0.625 0.71875 -0.625 1.890625q0 1.140625 0.609375 1.875q0.609375 0.734375 1.65625 0.734375zm10.041931 2.109375q-1.171875 0 -2.25 -0.359375q-1.078125 -0.375 -1.78125 -1.03125l1.03125 -1.65625q0.53125 0.5 1.421875 0.859375q0.90625 0.359375 1.6875 0.359375q1.515625 0 1.515625 -0.96875q0 -0.375 -0.40625 -0.5625q-0.390625 -0.1875 -0.96875 -0.3125l-1.296875 -0.265625q-2.6875 -0.578125 -2.6875 -2.6875q0 -1.25 1.03125 -2.03125q1.046875 -0.796875 2.671875 -0.796875q2.109375 0 3.625 1.234375l-0.9375 1.625q-0.421875 -0.4375 -1.125 -0.734375q-0.703125 -0.3125 -1.546875 -0.3125q-0.65625 0 -1.046875 0.265625q-0.375 0.25 -0.375 0.625q0 0.34375 0.390625 0.515625q0.390625 0.15625 0.984375 0.28125q0.609375 0.125 1.296875 0.28125q0.6875 0.15625 1.28125 0.46875q0.59375 0.3125 0.984375 0.859375q0.40625 0.546875 0.40625 1.453125q0 1.3125 -1.078125 2.109375q-1.0625 0.78125 -2.828125 0.78125z" fill-rule="nonzero"/><path fill="#ffffff" d="m457.68765 32.288715l0 0c0 -14.77688 11.979034 -26.755907 26.75592 -26.755907l93.41733 0l0 0c7.0960693 0 13.90155 2.8189182 18.91925 7.836623c5.0177 5.017705 7.83667 11.823174 7.83667 18.919285l0 0l0 0c0 14.776878 -11.979065 26.755905 -26.75592 26.755905l-93.41733 0c-14.776886 0 -26.75592 -11.979027 -26.75592 -26.755905z" fill-rule="evenodd"/><path stroke="#4a86e8" stroke-width="3.0" stroke-linejoin="round" stroke-linecap="butt" d="m457.68765 32.288715l0 0c0 -14.77688 11.979034 -26.755907 26.75592 -26.755907l93.41733 0l0 0c7.0960693 0 13.90155 2.8189182 18.91925 7.836623c5.0177 5.017705 7.83667 11.823174 7.83667 18.919285l0 0l0 0c0 14.776878 -11.979065 26.755905 -26.75592 26.755905l-93.41733 0c-14.776886 0 -26.75592 -11.979027 -26.75592 -26.755905z" fill-rule="evenodd"/><path fill="#000000" fill-opacity="0.0" d="m451.96063 5.5328083l156.40942 0l0 53.51181l-156.40942 0z" fill-rule="evenodd"/><path fill="#666666" d="m471.6421 39.149685q-4.5 0 -7.140625 -2.671875l1.953125 -2.734375q0.890625 0.9375 2.25 1.609375q1.375 0.65625 3.125 0.65625q1.484375 0 2.203125 -0.5625q0.734375 -0.5625 0.734375 -1.3125q0 -0.75 -0.84375 -1.171875q-0.828125 -0.4375 -4.03125 -1.2031269q-4.859375 -1.15625 -4.859375 -4.90625q0 -2.1875 1.75 -3.65625q1.765625 -1.484375 4.65625 -1.484375q4.03125 0 6.59375 2.34375l-2.0 2.640625q-2.0 -1.84375 -4.921875 -1.84375q-1.15625 0 -1.78125 0.46875q-0.625 0.46875 -0.625 1.21875q0 0.65625 0.71875 1.03125q0.734375 0.359375 1.8125 0.625l2.328125 0.578125q4.84375 1.234375 4.84375 4.968752q0 2.5 -1.796875 3.953125q-1.796875 1.453125 -4.96875 1.453125zm17.400024 -0.296875l0 -7.453127q0 -2.21875 -2.28125 -2.21875q-1.671875 0 -2.78125 1.4375l0 8.234377l-3.21875 0l0 -16.890627l3.21875 0l0 6.25q0.578125 -0.703125 1.671875 -1.296875q1.109375 -0.59375 2.640625 -0.59375q2.015625 0 2.984375 1.03125q0.984375 1.015625 0.984375 2.8125l0 8.687502l-3.21875 0zm12.080963 0.296875q-2.828125 0 -4.640625 -1.8125q-1.8125 -1.828125 -1.8125 -4.609375q0 -2.796877 1.8125 -4.593752q1.8125 -1.8125 4.640625 -1.8125q2.84375 0 4.65625 1.8125q1.828125 1.796875 1.828125 4.593752q0 2.8125 -1.828125 4.625q-1.8125 1.796875 -4.65625 1.796875zm0 -2.859375q1.390625 0 2.265625 -1.0q0.875 -1.0 0.875 -2.5625q0 -1.5312519 -0.875 -2.531252q-0.875 -1.015625 -2.265625 -1.015625q-1.34375 0 -2.234375 0.984375q-0.875 0.96875 -0.875 2.562502q0 1.609375 0.875 2.59375q0.890625 0.96875 2.234375 0.96875zm8.866486 2.5625l0 -12.234377l3.21875 0l0 1.671875q0.65625 -0.8125 1.703125 -1.390625q1.0625 -0.578125 2.203125 -0.578125l0 3.140625l-0.890625 -0.078125q-0.859375 0 -1.734375 0.40625q-0.875 0.40625 -1.28125 0.984375l0 8.078127l-3.21875 0zm13.227539 0.296875q-3.46875 0 -3.46875 -3.34375l0 -6.375002l-2.03125 0l0 -2.8125l2.03125 0l0 -3.34375l3.234375 0l0 3.34375l2.484375 0l0 2.8125l-2.484375 0l0 5.515627q0 0.59375 0.28125 0.96875q0.296875 0.375 0.828125 0.375q0.765625 0 1.125 -0.34375l0.6875 2.421875q-0.84375 0.78125 -2.6875 0.78125zm10.935547 -0.296875l0 -12.234377l3.21875 0l0 1.671875q0.65625 -0.8125 1.703125 -1.390625q1.0625 -0.578125 2.203125 -0.578125l0 3.140625l-0.890625 -0.078125q-0.859375 0 -1.734375 0.40625q-0.875 0.40625 -1.28125 0.984375l0 8.078127l-3.21875 0zm14.868103 0.296875q-2.890625 0 -4.71875 -1.78125q-1.8125 -1.78125 -1.8125 -4.640625q0 -2.734377 1.8125 -4.562502q1.8125 -1.84375 4.515625 -1.84375q2.71875 0 4.421875 1.859375q1.703125 1.859375 1.703125 4.875002l0 0.703125l-9.09375 0q0.15625 1.171875 1.046875 2.015625q0.90625 0.828125 2.484375 0.828125q0.75 0 1.6875 -0.3125q0.9375 -0.328125 1.578125 -0.90625l1.421875 2.078125q-0.921875 0.828125 -2.265625 1.265625q-1.34375 0.421875 -2.78125 0.421875zm2.8125 -7.562502q-0.078125 -1.21875 -0.921875 -1.96875q-0.828125 -0.75 -2.09375 -0.75q-1.265625 0 -2.078125 0.78125q-0.8125 0.765625 -0.9375 1.9375l6.03125 0zm12.78772 7.265627l0 -1.265625q-1.34375 1.5625 -3.875 1.5625q-1.765625 0 -3.015625 -1.125q-1.234375 -1.125 -1.234375 -2.921875q0 -1.796875 1.171875 -2.875q1.1875 -1.0781269 3.078125 -1.0781269q2.640625 0 3.875 1.5000019l0 -1.6562519q0 -0.921875 -0.734375 -1.484375q-0.734375 -0.5625 -1.953125 -0.5625q-2.015625 0 -3.5625 1.453125l-1.21875 -2.15625q2.234375 -1.921875 5.34375 -1.921875q2.578125 0 3.953125 1.203125q1.390625 1.203125 1.390625 3.421875l0 7.906252l-3.21875 0zm-2.578125 -1.875q1.765625 0 2.578125 -1.0625l0 -1.515625q-0.8125 -1.0625 -2.578125 -1.0625q-0.96875 0 -1.640625 0.484375q-0.671875 0.46875 -0.671875 1.359375q0 0.859375 0.671875 1.328125q0.671875 0.46875 1.640625 0.46875zm17.393799 1.875l0 -1.578125q-1.515625 1.875 -3.765625 1.875q-2.4375 0 -3.9375 -1.734375q-1.484375 -1.75 -1.484375 -4.671875q0 -2.875002 1.484375 -4.640627q1.5 -1.78125 3.9375 -1.78125q2.296875 0 3.765625 1.875l0 -6.234375l3.25 0l0 16.890627l-3.25 0zm-2.78125 -2.5625q0.8125 0 1.59375 -0.390625q0.78125 -0.390625 1.1875 -1.0l0 -4.328127q-0.40625 -0.609375 -1.1875 -1.0q-0.78125 -0.390625 -1.59375 -0.390625q-1.375 0 -2.234375 0.984375q-0.859375 0.984375 -0.859375 2.578127q0 1.546875 0.828125 2.546875q0.84375 1.0 2.265625 1.0zm13.623535 2.859375q-1.59375 0 -3.046875 -0.5q-1.453125 -0.5 -2.421875 -1.390625l1.390625 -2.25q0.734375 0.671875 1.953125 1.171875q1.21875 0.5 2.28125 0.5q2.046875 0 2.046875 -1.328125q0 -0.5 -0.546875 -0.75q-0.53125 -0.265625 -1.328125 -0.4375l-1.75 -0.359375q-3.640625 -0.78125 -3.640625 -3.640627q0 -1.703125 1.40625 -2.765625q1.40625 -1.078125 3.609375 -1.078125q2.859375 0 4.9375 1.671875l-1.296875 2.203125q-0.546875 -0.59375 -1.515625 -1.0q-0.953125 -0.421875 -2.09375 -0.421875q-0.890625 0 -1.421875 0.359375q-0.515625 0.34375 -0.515625 0.859375q0 0.453125 0.53125 0.6875q0.53125 0.21875 1.34375 0.390625q0.8125 0.15625 1.75 0.375q0.9375 0.21875 1.75 0.6562519q0.8125 0.421875 1.34375 1.15625q0.53125 0.734375 0.53125 1.96875q0 1.78125 -1.453125 2.859375q-1.4375 1.0625 -3.84375 1.0625z" fill-rule="nonzero"/><path fill="#ffffff" d="m236.81364 32.288715l0 0c0 -14.77688 11.979034 -26.755907 26.755905 -26.755907l93.41733 0l0 0c7.0961 0 13.901581 2.8189182 18.919281 7.836623c5.0177 5.017705 7.836609 11.823174 7.836609 18.919285l0 0l0 0c0 14.776878 -11.979004 26.755905 -26.75589 26.755905l-93.41733 0c-14.776871 0 -26.755905 -11.979027 -26.755905 -26.755905z" fill-rule="evenodd"/><path stroke="#ff0000" stroke-width="3.0" stroke-linejoin="round" stroke-linecap="butt" d="m236.81364 32.288715l0 0c0 -14.77688 11.979034 -26.755907 26.755905 -26.755907l93.41733 0l0 0c7.0961 0 13.901581 2.8189182 18.919281 7.836623c5.0177 5.017705 7.836609 11.823174 7.836609 18.919285l0 0l0 0c0 14.776878 -11.979004 26.755905 -26.75589 26.755905l-93.41733 0c-14.776871 0 -26.755905 -11.979027 -26.755905 -26.755905z" fill-rule="evenodd"/><path fill="#000000" fill-opacity="0.0" d="m230.41995 5.5328083l162.01575 0l0 53.51181l-162.01575 0z" fill-rule="evenodd"/><path fill="#666666" d="m249.46274 41.608715l0 -16.890627l3.59375 0l0 13.718752l7.140625 0l0 3.171875l-10.734375 0zm18.561707 0.296875q-2.828125 0 -4.640625 -1.8125q-1.8125 -1.828125 -1.8125 -4.609375q0 -2.796875 1.8125 -4.593752q1.8125 -1.8125 4.640625 -1.8125q2.84375 0 4.65625 1.8125q1.828125 1.7968769 1.828125 4.593752q0 2.8125 -1.828125 4.625q-1.8125 1.796875 -4.65625 1.796875zm0 -2.859375q1.390625 0 2.265625 -1.0q0.875 -1.0 0.875 -2.5625q0 -1.53125 -0.875 -2.53125q-0.875 -1.0156269 -2.265625 -1.0156269q-1.34375 0 -2.234375 0.9843769q-0.875 0.96875 -0.875 2.5625q0 1.609375 0.875 2.59375q0.890625 0.96875 2.234375 0.96875zm17.13211 2.5625l0 -7.390625q0 -2.281252 -2.265625 -2.281252q-1.75 0 -2.78125 1.4375019l0 8.234375l-3.21875 0l0 -12.234377l3.21875 0l0 1.59375q0.578125 -0.703125 1.671875 -1.296875q1.09375 -0.59375 2.609375 -0.59375q2.03125 0 3.0 1.046875q0.96875 1.046875 0.96875 2.843752l0 8.640625l-3.203125 0zm11.415009 4.96875q-1.59375 0 -2.859375 -0.40625q-1.25 -0.40625 -2.40625 -1.421875l1.4375 -2.328125q1.375 1.515625 3.828125 1.515625q1.59375 0 2.484375 -0.8125q0.890625 -0.8125 0.890625 -2.28125l0 -1.234375q-1.546875 1.921875 -3.78125 1.921875q-2.453125 0 -3.921875 -1.671875q-1.46875 -1.6875 -1.46875 -4.5625q0 -2.828125 1.453125 -4.515627q1.453125 -1.703125 3.9375 -1.703125q2.3125 0 3.78125 1.875l0 -1.578125l3.234375 0l0 11.406252q0 2.78125 -1.71875 4.28125q-1.71875 1.515625 -4.890625 1.515625zm0.609375 -7.90625q0.8125 0 1.578125 -0.40625q0.78125 -0.40625 1.1875 -0.984375l0 -3.953125q-0.40625 -0.609375 -1.1875 -1.0q-0.765625 -0.3906269 -1.578125 -0.3906269q-1.375 0 -2.234375 0.8906269q-0.859375 0.875 -0.859375 2.46875q0 1.59375 0.859375 2.484375q0.859375 0.890625 2.234375 0.890625zm15.675964 2.9375l0 -12.234377l3.21875 0l0 1.671875q0.65625 -0.8125 1.703125 -1.390625q1.0625 -0.578125 2.203125 -0.578125l0 3.140627l-0.890625 -0.078125q-0.859375 0 -1.734375 0.40625q-0.875 0.40625 -1.28125 0.984375l0 8.078125l-3.21875 0zm14.868134 0.296875q-2.890625 0 -4.71875 -1.78125q-1.8125 -1.78125 -1.8125 -4.640625q0 -2.734375 1.8125 -4.562502q1.8125 -1.84375 4.515625 -1.84375q2.71875 0 4.421875 1.859375q1.703125 1.8593769 1.703125 4.875002l0 0.703125l-9.09375 0q0.15625 1.171875 1.046875 2.015625q0.90625 0.828125 2.484375 0.828125q0.75 0 1.6875 -0.3125q0.9375 -0.328125 1.578125 -0.90625l1.421875 2.078125q-0.921875 0.828125 -2.265625 1.265625q-1.34375 0.421875 -2.78125 0.421875zm2.8125 -7.5625q-0.078125 -1.21875 -0.921875 -1.96875q-0.828125 -0.7500019 -2.09375 -0.7500019q-1.265625 0 -2.078125 0.7812519q-0.8125 0.765625 -0.9375 1.9375l6.03125 0zm12.78772 7.265625l0 -1.265625q-1.34375 1.5625 -3.875 1.5625q-1.765625 0 -3.015625 -1.125q-1.234375 -1.125 -1.234375 -2.921875q0 -1.796875 1.171875 -2.875q1.1875 -1.078125 3.078125 -1.078125q2.640625 0 3.875 1.5l0 -1.65625q0 -0.921875 -0.734375 -1.484375q-0.734375 -0.5625019 -1.953125 -0.5625019q-2.015625 0 -3.5625 1.4531269l-1.21875 -2.156252q2.234375 -1.921875 5.34375 -1.921875q2.578125 0 3.953125 1.203125q1.390625 1.203125 1.390625 3.421877l0 7.90625l-3.21875 0zm-2.578125 -1.875q1.765625 0 2.578125 -1.0625l0 -1.515625q-0.8125 -1.0625 -2.578125 -1.0625q-0.96875 0 -1.640625 0.484375q-0.671875 0.46875 -0.671875 1.359375q0 0.859375 0.671875 1.328125q0.671875 0.46875 1.640625 0.46875zm17.39383 1.875l0 -1.578125q-1.515625 1.875 -3.765625 1.875q-2.4375 0 -3.9375 -1.734375q-1.484375 -1.75 -1.484375 -4.671875q0 -2.875 1.484375 -4.640627q1.5 -1.78125 3.9375 -1.78125q2.296875 0 3.765625 1.875l0 -6.234375l3.25 0l0 16.890627l-3.25 0zm-2.78125 -2.5625q0.8125 0 1.59375 -0.390625q0.78125 -0.390625 1.1875 -1.0l0 -4.328125q-0.40625 -0.609375 -1.1875 -1.0q-0.78125 -0.3906269 -1.59375 -0.3906269q-1.375 0 -2.234375 0.9843769q-0.859375 0.984375 -0.859375 2.578125q0 1.546875 0.828125 2.546875q0.84375 1.0 2.265625 1.0zm13.623535 2.859375q-1.59375 0 -3.046875 -0.5q-1.453125 -0.5 -2.421875 -1.390625l1.390625 -2.25q0.734375 0.671875 1.953125 1.171875q1.21875 0.5 2.28125 0.5q2.046875 0 2.046875 -1.328125q0 -0.5 -0.546875 -0.75q-0.53125 -0.265625 -1.328125 -0.4375l-1.75 -0.359375q-3.640625 -0.78125 -3.640625 -3.640625q0 -1.7031269 1.40625 -2.765627q1.40625 -1.078125 3.609375 -1.078125q2.859375 0 4.9375 1.671875l-1.296875 2.203127q-0.546875 -0.59375 -1.515625 -1.0000019q-0.953125 -0.421875 -2.09375 -0.421875q-0.890625 0 -1.421875 0.359375q-0.515625 0.3437519 -0.515625 0.8593769q0 0.453125 0.53125 0.6875q0.53125 0.21875 1.34375 0.390625q0.8125 0.15625 1.75 0.375q0.9375 0.21875 1.75 0.65625q0.8125 0.421875 1.34375 1.15625q0.53125 0.734375 0.53125 1.96875q0 1.78125 -1.453125 2.859375q-1.4375 1.0625 -3.84375 1.0625z" fill-rule="nonzero"/><path fill="#000000" fill-opacity="0.0" d="m357.49344 65.25459l126.14172 0l0 43.37008l-126.14172 0z" fill-rule="evenodd"/><path fill="#000000" d="m392.86832 92.17459l0 -8.71875l-3.5 8.71875l-1.15625 0l-3.515625 -8.71875l0 8.71875l-2.640625 0l0 -12.4375l3.703125 0l3.03125 7.515625l3.015625 -7.515625l3.734375 0l0 12.4375l-2.671875 0zm10.48233 0l0 -0.9375q-0.984375 1.15625 -2.84375 1.15625q-1.3125 0 -2.234375 -0.828125q-0.90625 -0.828125 -0.90625 -2.15625q0 -1.3125 0.859375 -2.109375q0.875 -0.796875 2.28125 -0.796875q1.9375 0 2.84375 1.09375l0 -1.203125q0 -0.6875 -0.546875 -1.09375q-0.53125 -0.421875 -1.421875 -0.421875q-1.5 0 -2.625 1.0625l-0.90625 -1.578125q1.640625 -1.421875 3.9375 -1.421875q1.90625 0 2.921875 0.890625q1.015625 0.875 1.015625 2.515625l0 5.828125l-2.375 0zm-1.890625 -1.375q1.296875 0 1.890625 -0.796875l0 -1.109375q-0.59375 -0.78125 -1.890625 -0.78125q-0.71875 0 -1.21875 0.359375q-0.484375 0.34375 -0.484375 1.0q0 0.625 0.484375 0.984375q0.5 0.34375 1.21875 0.34375zm11.770966 1.59375q-1.734375 0 -2.78125 -1.375l0 4.59375l-2.375 0l0 -12.453125l2.375 0l0 1.140625q1.078125 -1.359375 2.78125 -1.359375q1.78125 0 2.875 1.265625q1.109375 1.25 1.109375 3.453125q0 2.171875 -1.09375 3.453125q-1.078125 1.28125 -2.890625 1.28125zm-0.75 -2.109375q1.03125 0 1.65625 -0.71875q0.625 -0.734375 0.625 -1.90625q0 -1.171875 -0.625 -1.890625q-0.625 -0.71875 -1.65625 -0.71875q-0.578125 0 -1.15625 0.296875q-0.578125 0.296875 -0.875 0.734375l0 3.1875q0.296875 0.421875 0.875 0.71875q0.578125 0.296875 1.15625 0.296875zm11.626617 2.109375q-1.734375 0 -2.78125 -1.375l0 4.59375l-2.375 0l0 -12.453125l2.375 0l0 1.140625q1.078125 -1.359375 2.78125 -1.359375q1.78125 0 2.875 1.265625q1.109375 1.25 1.109375 3.453125q0 2.171875 -1.09375 3.453125q-1.078125 1.28125 -2.890625 1.28125zm-0.75 -2.109375q1.03125 0 1.65625 -0.71875q0.625 -0.734375 0.625 -1.90625q0 -1.171875 -0.625 -1.890625q-0.625 -0.71875 -1.65625 -0.71875q-0.578125 0 -1.15625 0.296875q-0.578125 0.296875 -0.875 0.734375l0 3.1875q0.296875 0.421875 0.875 0.71875q0.578125 0.296875 1.15625 0.296875zm7.642212 -8.09375q-0.578125 0 -1.0 -0.40625q-0.40625 -0.40625 -0.40625 -1.015625q0 -0.59375 0.40625 -0.984375q0.421875 -0.40625 1.0 -0.40625q0.609375 0 1.015625 0.40625q0.40625 0.390625 0.40625 0.984375q0 0.609375 -0.40625 1.015625q-0.40625 0.40625 -1.015625 0.40625zm-1.171875 9.984375l0 -9.015625l2.375 0l0 9.015625l-2.375 0zm10.798157 0l0 -5.453125q0 -1.671875 -1.65625 -1.671875q-1.28125 0 -2.046875 1.0625l0 6.0625l-2.375 0l0 -9.015625l2.375 0l0 1.1875q0.421875 -0.53125 1.21875 -0.96875q0.8125 -0.4375 1.9375 -0.4375q1.484375 0 2.203125 0.78125q0.71875 0.765625 0.71875 2.09375l0 6.359375l-2.375 0zm8.426971 3.65625q-1.1875 0 -2.109375 -0.296875q-0.921875 -0.296875 -1.78125 -1.046875l1.0625 -1.71875q1.015625 1.125 2.828125 1.125q1.171875 0 1.8125 -0.609375q0.65625 -0.59375 0.65625 -1.671875l0 -0.90625q-1.125 1.40625 -2.765625 1.40625q-1.8125 0 -2.90625 -1.234375q-1.078125 -1.234375 -1.078125 -3.34375q0 -2.09375 1.078125 -3.34375q1.078125 -1.25 2.90625 -1.25q1.6875 0 2.765625 1.375l0 -1.15625l2.390625 0l0 8.40625q0 2.046875 -1.265625 3.15625q-1.265625 1.109375 -3.59375 1.109375zm0.4375 -5.828125q0.59375 0 1.15625 -0.296875q0.578125 -0.296875 0.875 -0.71875l0 -2.90625q-0.296875 -0.453125 -0.875 -0.734375q-0.5625 -0.296875 -1.15625 -0.296875q-1.0 0 -1.640625 0.65625q-0.625 0.640625 -0.625 1.828125q0 1.171875 0.625 1.828125q0.640625 0.640625 1.640625 0.640625z" fill-rule="nonzero"/><path fill="#000000" fill-opacity="0.0" d="m530.16534 59.04462l0 82.544586l-33.88974 0l0 82.557785" fill-rule="evenodd"/><path stroke="#6d9eeb" stroke-width="4.0" stroke-linejoin="round" stroke-linecap="butt" d="m530.16534 59.04462l0 82.544586l-33.88974 0l0 68.84943" fill-rule="evenodd"/><path fill="#6d9eeb" stroke="#6d9eeb" stroke-width="4.0" stroke-linecap="butt" d="m496.2756 210.43863l-4.498352 -4.4983215l4.498352 12.35907l4.4983215 -12.35907z" fill-rule="evenodd"/><path fill="#000000" fill-opacity="0.0" d="m311.42783 59.04462l0 82.544586l31.716522 0l0 82.557785" fill-rule="evenodd"/><path stroke="#e06666" stroke-width="4.0" stroke-linejoin="round" stroke-linecap="butt" d="m311.42783 59.04462l0 82.544586l31.716522 0l0 68.84943" fill-rule="evenodd"/><path fill="#e06666" stroke="#e06666" stroke-width="4.0" stroke-linecap="butt" d="m343.14435 210.43863l-4.4983215 -4.4983215l4.4983215 12.35907l4.498352 -12.35907z" fill-rule="evenodd"/><path fill="#ffffff" d="m342.3596 141.58923l0 0c0 -14.776871 11.979004 -26.755898 26.75589 -26.755898l99.590546 0l0 0c7.0961304 0 13.901581 2.8189163 18.919281 7.836624c5.0177307 5.0177 7.8366394 11.8231735 7.8366394 18.919273l0 0l0 0c0 14.776886 -11.979034 26.755905 -26.75592 26.755905l-99.590546 0c-14.776886 0 -26.75589 -11.979019 -26.75589 -26.755905z" fill-rule="evenodd"/><path stroke="#666666" stroke-width="3.0" stroke-linejoin="round" stroke-linecap="butt" d="m342.3596 141.58923l0 0c0 -14.776871 11.979004 -26.755898 26.75589 -26.755898l99.590546 0l0 0c7.0961304 0 13.901581 2.8189163 18.919281 7.836624c5.0177307 5.0177 7.8366394 11.8231735 7.8366394 18.919273l0 0l0 0c0 14.776886 -11.979034 26.755905 -26.75592 26.755905l-99.590546 0c-14.776886 0 -26.75589 -11.979019 -26.75589 -26.755905z" fill-rule="evenodd"/><path fill="#000000" fill-opacity="0.0" d="m342.3596 114.833336l156.40945 0l0 53.511803l-156.40945 0z" fill-rule="evenodd"/><path fill="#666666" d="m368.71027 150.71333l-3.671875 -6.640625l-2.90625 0l0 6.640625l-3.984375 0l0 -18.671875l8.734375 0q2.859375 0 4.5625 1.703125q1.71875 1.6875 1.71875 4.3125q0 2.1875 -1.171875 3.671875q-1.15625 1.484375 -2.921875 1.875l4.203125 7.109375l-4.5625 0zm-2.40625 -10.140625q1.203125 0 2.0 -0.671875q0.796875 -0.671875 0.796875 -1.84375q0 -1.171875 -0.796875 -1.84375q-0.796875 -0.671875 -2.0 -0.671875l-4.171875 0l0 5.03125l4.171875 0zm15.289093 10.484375q-3.203125 0 -5.21875 -1.96875q-2.015625 -1.984375 -2.015625 -5.15625q0 -3.015625 2.0 -5.046875q2.015625 -2.03125 5.0 -2.03125q3.0 0 4.890625 2.0625q1.890625 2.046875 1.890625 5.390625l0 0.78125l-10.046875 0q0.15625 1.28125 1.15625 2.21875q1.0 0.921875 2.734375 0.921875q0.84375 0 1.875 -0.34375q1.03125 -0.359375 1.734375 -1.015625l1.5625 2.296875q-1.0 0.9375 -2.484375 1.421875q-1.484375 0.46875 -3.078125 0.46875zm3.109375 -8.375q-0.09375 -1.34375 -1.015625 -2.171875q-0.921875 -0.828125 -2.328125 -0.828125q-1.390625 0 -2.296875 0.859375q-0.890625 0.84375 -1.03125 2.140625l6.671875 0zm6.79657 8.03125l0 -10.421875l-2.234375 0l0 -3.109375l2.234375 0l0 -0.71875q0 -2.1875 1.25 -3.4375q1.265625 -1.265625 3.3125 -1.265625q2.375 0 3.53125 1.25l-1.34375 2.109375q-0.5625 -0.5625 -1.484375 -0.5625q-0.734375 0 -1.21875 0.484375q-0.46875 0.46875 -0.46875 1.421875l0 0.71875l2.75 0l0 3.109375l-2.75 0l0 10.421875l-3.578125 0zm14.734161 0.34375q-3.203125 0 -5.21875 -1.96875q-2.015625 -1.984375 -2.015625 -5.15625q0 -3.015625 2.0 -5.046875q2.015625 -2.03125 5.0 -2.03125q3.0 0 4.890625 2.0625q1.890625 2.046875 1.890625 5.390625l0 0.78125l-10.046875 0q0.15625 1.28125 1.15625 2.21875q1.0 0.921875 2.734375 0.921875q0.84375 0 1.875 -0.34375q1.03125 -0.359375 1.734375 -1.015625l1.5625 2.296875q-1.0 0.9375 -2.484375 1.421875q-1.484375 0.46875 -3.078125 0.46875zm3.109375 -8.375q-0.09375 -1.34375 -1.015625 -2.171875q-0.921875 -0.828125 -2.328125 -0.828125q-1.390625 0 -2.296875 0.859375q-0.890625 0.84375 -1.03125 2.140625l6.671875 0zm6.01532 8.03125l0 -13.53125l3.546875 0l0 1.859375q0.734375 -0.90625 1.890625 -1.546875q1.171875 -0.640625 2.421875 -0.640625l0 3.46875l-0.96875 -0.078125q-0.953125 0 -1.921875 0.453125q-0.96875 0.4375 -1.421875 1.078125l0 8.9375l-3.546875 0zm16.439423 0.34375q-3.203125 0 -5.21875 -1.96875q-2.015625 -1.984375 -2.015625 -5.15625q0 -3.015625 2.0 -5.046875q2.015625 -2.03125 5.0 -2.03125q3.0 0 4.890625 2.0625q1.890625 2.046875 1.890625 5.390625l0 0.78125l-10.046875 0q0.15625 1.28125 1.15625 2.21875q1.0 0.921875 2.734375 0.921875q0.84375 0 1.875 -0.34375q1.03125 -0.359375 1.734375 -1.015625l1.5625 2.296875q-1.0 0.9375 -2.484375 1.421875q-1.484375 0.46875 -3.078125 0.46875zm3.109375 -8.375q-0.09375 -1.34375 -1.015625 -2.171875q-0.921875 -0.828125 -2.328125 -0.828125q-1.390625 0 -2.296875 0.859375q-0.890625 0.84375 -1.03125 2.140625l6.671875 0zm15.14032 8.03125l0 -8.171875q0 -2.53125 -2.484375 -2.53125q-1.9375 0 -3.09375 1.609375l0 9.09375l-3.546875 0l0 -13.53125l3.546875 0l0 1.765625q0.65625 -0.78125 1.859375 -1.4375q1.203125 -0.65625 2.875 -0.65625q2.25 0 3.328125 1.171875q1.078125 1.15625 1.078125 3.140625l0 9.546875l-3.5625 0zm13.383942 0.34375q-3.1875 0 -5.1875 -2.015625q-1.984375 -2.03125 -1.984375 -5.109375q0 -3.046875 1.984375 -5.0625q2.0 -2.015625 5.1875 -2.015625q2.078125 0 3.375 0.765625q1.296875 0.75 1.96875 1.671875l-2.3125 2.1875q-0.984375 -1.46875 -2.859375 -1.46875q-1.625 0 -2.65625 1.078125q-1.015625 1.078125 -1.015625 2.84375q0 1.765625 1.015625 2.859375q1.03125 1.09375 2.65625 1.09375q1.8125 0 2.859375 -1.453125l2.3125 2.15625q-0.671875 0.953125 -1.96875 1.71875q-1.296875 0.75 -3.375 0.75zm14.034546 0q-3.203125 0 -5.21875 -1.96875q-2.015625 -1.984375 -2.015625 -5.15625q0 -3.015625 2.0 -5.046875q2.015625 -2.03125 5.0 -2.03125q3.0 0 4.890625 2.0625q1.890625 2.046875 1.890625 5.390625l0 0.78125l-10.046875 0q0.15625 1.28125 1.15625 2.21875q1.0 0.921875 2.734375 0.921875q0.84375 0 1.875 -0.34375q1.03125 -0.359375 1.734375 -1.015625l1.5625 2.296875q-1.0 0.9375 -2.484375 1.421875q-1.484375 0.46875 -3.078125 0.46875zm3.109375 -8.375q-0.09375 -1.34375 -1.015625 -2.171875q-0.921875 -0.828125 -2.328125 -0.828125q-1.390625 0 -2.296875 0.859375q-0.890625 0.84375 -1.03125 2.140625l6.671875 0z" fill-rule="nonzero"/><path fill="#000000" fill-opacity="0.0" d="m343.13647 284.26117l0 10.7048645l75.811035 0l0 32.381744" fill-rule="evenodd"/><path stroke="#8e7cc3" stroke-width="4.0" stroke-linejoin="round" stroke-linecap="butt" d="m343.13647 284.26117l0 10.7048645l75.811035 0l0 18.67337" fill-rule="evenodd"/><path fill="#8e7cc3" stroke="#8e7cc3" stroke-width="4.0" stroke-linecap="butt" d="m418.9475 313.63943l-4.498352 -4.498352l4.498352 12.35907l4.4983215 -12.35907z" fill-rule="evenodd"/><path fill="#ffffff" d="m340.73752 490.3084l0 0c0 -14.776886 11.979034 -26.75592 26.75592 -26.75592l99.590546 0l0 0c7.0961 0 13.901581 2.8189087 18.919281 7.8366394c5.0177 5.0177 7.8366394 11.823151 7.8366394 18.919281l0 0l0 0c0 14.776855 -11.979034 26.75592 -26.75592 26.75592l-99.590546 0c-14.776886 0 -26.75592 -11.979065 -26.75592 -26.75592z" fill-rule="evenodd"/><path stroke="#595959" stroke-width="3.0" stroke-linejoin="round" stroke-linecap="butt" d="m340.73752 490.3084l0 0c0 -14.776886 11.979034 -26.75592 26.75592 -26.75592l99.590546 0l0 0c7.0961 0 13.901581 2.8189087 18.919281 7.8366394c5.0177 5.0177 7.8366394 11.823151 7.8366394 18.919281l0 0l0 0c0 14.776855 -11.979034 26.75592 -26.75592 26.75592l-99.590546 0c-14.776886 0 -26.75592 -11.979065 -26.75592 -26.75592z" fill-rule="evenodd"/><path fill="#000000" fill-opacity="0.0" d="m342.3596 455.9672l156.40945 0l0 60.126007l-156.40945 0z" fill-rule="evenodd"/><path fill="#666666" d="m381.20267 482.88718l0 -12.4375l5.8125 0q1.90625 0 3.046875 1.109375q1.140625 1.109375 1.140625 2.890625q0 1.78125 -1.171875 2.90625q-1.15625 1.109375 -3.015625 1.109375l-3.171875 0l0 4.421875l-2.640625 0zm5.46875 -6.75q0.78125 0 1.296875 -0.453125q0.53125 -0.453125 0.53125 -1.234375q0 -0.78125 -0.53125 -1.21875q-0.515625 -0.453125 -1.296875 -0.453125l-2.828125 0l0 3.359375l2.828125 0zm6.11026 6.75l0 -9.015625l2.375 0l0 1.234375q0.484375 -0.59375 1.25 -1.015625q0.78125 -0.4375 1.625 -0.4375l0 2.3125l-0.65625 -0.0625q-0.640625 0 -1.28125 0.3125q-0.640625 0.296875 -0.9375 0.71875l0 5.953125l-2.375 0zm10.950623 0.21875q-2.125 0 -3.46875 -1.3125q-1.34375 -1.3125 -1.34375 -3.421875q0 -2.015625 1.328125 -3.359375q1.34375 -1.359375 3.34375 -1.359375q1.984375 0 3.25 1.375q1.265625 1.359375 1.265625 3.59375l0 0.515625l-6.703125 0q0.109375 0.859375 0.765625 1.484375q0.671875 0.609375 1.828125 0.609375q0.5625 0 1.25 -0.234375q0.6875 -0.234375 1.15625 -0.671875l1.046875 1.53125q-0.671875 0.625 -1.671875 0.9375q-0.984375 0.3125 -2.046875 0.3125zm2.078125 -5.578125q-0.0625 -0.890625 -0.6875 -1.4375q-0.609375 -0.546875 -1.53125 -0.546875q-0.9375 0 -1.53125 0.5625q-0.59375 0.5625 -0.6875 1.421875l4.4375 0zm10.20752 5.359375l0 -1.15625q-1.125 1.375 -2.78125 1.375q-1.796875 0 -2.90625 -1.28125q-1.09375 -1.28125 -1.09375 -3.4375q0 -2.125 1.09375 -3.421875q1.109375 -1.3125 2.90625 -1.3125q1.6875 0 2.78125 1.375l0 -4.578125l2.375 0l0 12.4375l-2.375 0zm-2.0625 -1.890625q0.59375 0 1.171875 -0.28125q0.59375 -0.296875 0.890625 -0.734375l0 -3.1875q-0.296875 -0.453125 -0.890625 -0.734375q-0.578125 -0.296875 -1.171875 -0.296875q-1.0 0 -1.640625 0.734375q-0.625 0.71875 -0.625 1.890625q0 1.140625 0.609375 1.875q0.609375 0.734375 1.65625 0.734375zm7.9638367 -8.09375q-0.578125 0 -1.0 -0.40625q-0.40625 -0.40625 -0.40625 -1.015625q0 -0.59375 0.40625 -0.984375q0.421875 -0.40625 1.0 -0.40625q0.609375 0 1.015625 0.40625q0.40625 0.390625 0.40625 0.984375q0 0.609375 -0.40625 1.015625q-0.40625 0.40625 -1.015625 0.40625zm-1.171875 9.984375l0 -9.015625l2.375 0l0 9.015625l-2.375 0zm8.923157 0.21875q-2.125 0 -3.453125 -1.34375q-1.328125 -1.34375 -1.328125 -3.390625q0 -2.03125 1.328125 -3.375q1.328125 -1.34375 3.453125 -1.34375q1.375 0 2.234375 0.5q0.875 0.5 1.328125 1.125l-1.546875 1.453125q-0.65625 -0.96875 -1.90625 -0.96875q-1.078125 0 -1.765625 0.71875q-0.671875 0.71875 -0.671875 1.890625q0 1.171875 0.671875 1.90625q0.6875 0.71875 1.765625 0.71875q1.21875 0 1.90625 -0.96875l1.546875 1.4375q-0.453125 0.640625 -1.328125 1.140625q-0.859375 0.5 -2.234375 0.5zm8.137573 0q-2.5625 0 -2.5625 -2.453125l0 -4.703125l-1.484375 0l0 -2.078125l1.484375 0l0 -2.453125l2.390625 0l0 2.453125l1.828125 0l0 2.078125l-1.828125 0l0 4.0625q0 0.4375 0.203125 0.71875q0.21875 0.265625 0.609375 0.265625q0.5625 0 0.828125 -0.25l0.5 1.78125q-0.609375 0.578125 -1.96875 0.578125zm7.5089417 0q-2.125 0 -3.46875 -1.3125q-1.34375 -1.3125 -1.34375 -3.421875q0 -2.015625 1.328125 -3.359375q1.34375 -1.359375 3.34375 -1.359375q1.984375 0 3.25 1.375q1.265625 1.359375 1.265625 3.59375l0 0.515625l-6.703125 0q0.109375 0.859375 0.765625 1.484375q0.671875 0.609375 1.828125 0.609375q0.5625 0 1.25 -0.234375q0.6875 -0.234375 1.15625 -0.671875l1.046875 1.53125q-0.671875 0.625 -1.671875 0.9375q-0.984375 0.3125 -2.046875 0.3125zm2.078125 -5.578125q-0.0625 -0.890625 -0.6875 -1.4375q-0.609375 -0.546875 -1.53125 -0.546875q-0.9375 0 -1.53125 0.5625q-0.59375 0.5625 -0.6875 1.421875l4.4375 0zm10.20755 5.359375l0 -1.15625q-1.125 1.375 -2.78125 1.375q-1.796875 0 -2.90625 -1.28125q-1.09375 -1.28125 -1.09375 -3.4375q0 -2.125 1.09375 -3.421875q1.109375 -1.3125 2.90625 -1.3125q1.6875 0 2.78125 1.375l0 -4.578125l2.375 0l0 12.4375l-2.375 0zm-2.0625 -1.890625q0.59375 0 1.171875 -0.28125q0.59375 -0.296875 0.890625 -0.734375l0 -3.1875q-0.296875 -0.453125 -0.890625 -0.734375q-0.578125 -0.296875 -1.171875 -0.296875q-1.0 0 -1.640625 0.734375q-0.625 0.71875 -0.625 1.890625q0 1.140625 0.609375 1.875q0.609375 0.734375 1.65625 0.734375z" fill-rule="nonzero"/><path fill="#666666" d="m381.23288 504.88718l0 -5.484375q0 -1.640625 -1.6875 -1.640625q-1.234375 0 -2.046875 1.0625l0 6.0625l-2.375 0l0 -12.4375l2.375 0l0 4.609375q0.421875 -0.53125 1.234375 -0.96875q0.8125 -0.4375 1.9375 -0.4375q1.484375 0 2.203125 0.765625q0.71875 0.75 0.71875 2.0625l0 6.40625l-2.359375 0zm10.117523 0l0 -0.9375q-0.984375 1.15625 -2.84375 1.15625q-1.3125 0 -2.234375 -0.828125q-0.90625 -0.828125 -0.90625 -2.15625q0 -1.3125 0.859375 -2.109375q0.875 -0.796875 2.28125 -0.796875q1.9375 0 2.84375 1.09375l0 -1.203125q0 -0.6875 -0.546875 -1.09375q-0.53125 -0.421875 -1.421875 -0.421875q-1.5 0 -2.625 1.0625l-0.90625 -1.578125q1.640625 -1.421875 3.9375 -1.421875q1.90625 0 2.921875 0.890625q1.015625 0.875 1.015625 2.515625l0 5.828125l-2.375 0zm-1.890625 -1.375q1.296875 0 1.890625 -0.796875l0 -1.109375q-0.59375 -0.78125 -1.890625 -0.78125q-0.71875 0 -1.21875 0.359375q-0.484375 0.34375 -0.484375 1.0q0 0.625 0.484375 0.984375q0.5 0.34375 1.21875 0.34375zm11.770966 1.59375q-1.734375 0 -2.78125 -1.375l0 4.59375l-2.375 0l0 -12.453125l2.375 0l0 1.140625q1.078125 -1.359375 2.78125 -1.359375q1.78125 0 2.875 1.265625q1.109375 1.25 1.109375 3.453125q0 2.171875 -1.09375 3.453125q-1.078125 1.28125 -2.890625 1.28125zm-0.75 -2.109375q1.03125 0 1.65625 -0.71875q0.625 -0.734375 0.625 -1.90625q0 -1.171875 -0.625 -1.890625q-0.625 -0.71875 -1.65625 -0.71875q-0.578125 0 -1.15625 0.296875q-0.578125 0.296875 -0.875 0.734375l0 3.1875q0.296875 0.421875 0.875 0.71875q0.578125 0.296875 1.15625 0.296875zm6.470337 1.890625l0 -12.4375l2.375 0l0 12.4375l-2.375 0zm8.907532 0.21875q-2.09375 0 -3.4375 -1.34375q-1.328125 -1.34375 -1.328125 -3.390625q0 -2.046875 1.328125 -3.375q1.34375 -1.34375 3.4375 -1.34375q2.078125 0 3.421875 1.34375q1.34375 1.328125 1.34375 3.375q0 2.078125 -1.34375 3.40625q-1.34375 1.328125 -3.421875 1.328125zm0 -2.109375q1.015625 0 1.65625 -0.734375q0.65625 -0.734375 0.65625 -1.890625q0 -1.125 -0.65625 -1.859375q-0.640625 -0.75 -1.65625 -0.75q-1.0 0 -1.65625 0.71875q-0.640625 0.71875 -0.640625 1.890625q0 1.1875 0.640625 1.90625q0.65625 0.71875 1.65625 0.71875zm9.55246 2.109375q-2.5625 0 -2.5625 -2.453125l0 -4.703125l-1.484375 0l0 -2.078125l1.484375 0l0 -2.453125l2.390625 0l0 2.453125l1.828125 0l0 2.078125l-1.828125 0l0 4.0625q0 0.4375 0.203125 0.71875q0.21875 0.265625 0.609375 0.265625q0.5625 0 0.828125 -0.25l0.5 1.78125q-0.609375 0.578125 -1.96875 0.578125zm3.3214417 1.1875q0.296875 0.140625 0.734375 0.140625q0.953125 0 1.25 -0.65625l0.34375 -0.765625l-3.65625 -9.140625l2.53125 0l2.359375 6.265625l2.34375 -6.265625l2.5625 0l-4.234375 10.484375q-0.515625 1.28125 -1.390625 1.71875q-0.875 0.453125 -2.03125 0.46875q-0.65625 0 -1.171875 -0.125l0.359375 -2.125zm14.680023 -1.1875q-1.734375 0 -2.78125 -1.375l0 4.59375l-2.375 0l0 -12.453125l2.375 0l0 1.140625q1.078125 -1.359375 2.78125 -1.359375q1.78125 0 2.875 1.265625q1.109375 1.25 1.109375 3.453125q0 2.171875 -1.09375 3.453125q-1.078125 1.28125 -2.890625 1.28125zm-0.75 -2.109375q1.03125 0 1.65625 -0.71875q0.625 -0.734375 0.625 -1.90625q0 -1.171875 -0.625 -1.890625q-0.625 -0.71875 -1.65625 -0.71875q-0.578125 0 -1.15625 0.296875q-0.578125 0.296875 -0.875 0.734375l0 3.1875q0.296875 0.421875 0.875 0.71875q0.578125 0.296875 1.15625 0.296875zm10.704742 2.109375q-2.125 0 -3.46875 -1.3125q-1.34375 -1.3125 -1.34375 -3.421875q0 -2.015625 1.328125 -3.359375q1.34375 -1.359375 3.34375 -1.359375q1.984375 0 3.25 1.375q1.265625 1.359375 1.265625 3.59375l0 0.515625l-6.703125 0q0.109375 0.859375 0.765625 1.484375q0.671875 0.609375 1.828125 0.609375q0.5625 0 1.25 -0.234375q0.6875 -0.234375 1.15625 -0.671875l1.046875 1.53125q-0.671875 0.625 -1.671875 0.9375q-0.984375 0.3125 -2.046875 0.3125zm2.078125 -5.578125q-0.0625 -0.890625 -0.6875 -1.4375q-0.609375 -0.546875 -1.53125 -0.546875q-0.9375 0 -1.53125 0.5625q-0.59375 0.5625 -0.6875 1.421875l4.4375 0zm7.2543945 5.578125q-1.171875 0 -2.25 -0.359375q-1.078125 -0.375 -1.78125 -1.03125l1.03125 -1.65625q0.53125 0.5 1.421875 0.859375q0.90625 0.359375 1.6875 0.359375q1.515625 0 1.515625 -0.96875q0 -0.375 -0.40625 -0.5625q-0.390625 -0.1875 -0.96875 -0.3125l-1.296875 -0.265625q-2.6875 -0.578125 -2.6875 -2.6875q0 -1.25 1.03125 -2.03125q1.046875 -0.796875 2.671875 -0.796875q2.109375 0 3.625 1.234375l-0.9375 1.625q-0.421875 -0.4375 -1.125 -0.734375q-0.703125 -0.3125 -1.546875 -0.3125q-0.65625 0 -1.046875 0.265625q-0.375 0.25 -0.375 0.625q0 0.34375 0.390625 0.515625q0.390625 0.15625 0.984375 0.28125q0.609375 0.125 1.296875 0.28125q0.6875 0.15625 1.28125 0.46875q0.59375 0.3125 0.984375 0.859375q0.40625 0.546875 0.40625 1.453125q0 1.3125 -1.078125 2.109375q-1.0625 0.78125 -2.828125 0.78125z" fill-rule="nonzero"/><path fill="#000000" fill-opacity="0.0" d="m420.5643 396.05283l0 59.905518" fill-rule="evenodd"/><path stroke="#595959" stroke-width="4.0" stroke-linejoin="round" stroke-linecap="butt" d="m420.5643 396.05283l0 46.197174" fill-rule="evenodd"/><path fill="#595959" stroke="#595959" stroke-width="4.0" stroke-linecap="butt" d="m420.5643 442.25l-4.4983215 -4.498352l4.4983215 12.35907l4.498352 -12.35907z" fill-rule="evenodd"/><path fill="#ffffff" d="m264.96326 257.50525l0 0c0 -14.776871 11.979034 -26.755905 26.75589 -26.755905l99.590576 0l0 0c7.0961 0 13.90155 2.818924 18.919281 7.836624c5.0177 5.0177 7.836609 11.823181 7.836609 18.919281l0 0l0 0c0 14.776886 -11.979034 26.75592 -26.75589 26.75592l-99.590576 0c-14.776855 0 -26.75589 -11.979034 -26.75589 -26.75592z" fill-rule="evenodd"/><path stroke="#ff0000" stroke-width="3.0" stroke-linejoin="round" stroke-linecap="butt" d="m264.96326 257.50525l0 0c0 -14.776871 11.979034 -26.755905 26.75589 -26.755905l99.590576 0l0 0c7.0961 0 13.90155 2.818924 18.919281 7.836624c5.0177 5.0177 7.836609 11.823181 7.836609 18.919281l0 0l0 0c0 14.776886 -11.979034 26.75592 -26.75589 26.75592l-99.590576 0c-14.776855 0 -26.75589 -11.979034 -26.75589 -26.75592z" fill-rule="evenodd"/><path fill="#ffffff" d="m418.0958 257.50525l0 0c0 -14.776871 11.979034 -26.755905 26.75592 -26.755905l99.590546 0l0 0c7.0961304 0 13.90155 2.818924 18.91925 7.836624c5.017761 5.0177 7.83667 11.823181 7.83667 18.919281l0 0l0 0c0 14.776886 -11.979065 26.75592 -26.75592 26.75592l-99.590546 0c-14.776886 0 -26.75592 -11.979034 -26.75592 -26.75592z" fill-rule="evenodd"/><path stroke="#4a86e8" stroke-width="3.0" stroke-linejoin="round" stroke-linecap="butt" d="m418.0958 257.50525l0 0c0 -14.776871 11.979034 -26.755905 26.75592 -26.755905l99.590546 0l0 0c7.0961304 0 13.90155 2.818924 18.91925 7.836624c5.017761 5.0177 7.83667 11.823181 7.83667 18.919281l0 0l0 0c0 14.776886 -11.979065 26.75592 -26.75592 26.75592l-99.590546 0c-14.776886 0 -26.75592 -11.979034 -26.75592 -26.75592z" fill-rule="evenodd"/><path fill="#000000" fill-opacity="0.0" d="m418.0643 224.13518l156.40945 0l0 60.12599l-156.40945 0z" fill-rule="evenodd"/><path fill="#666666" d="m447.10257 251.05518l0 -5.21875l-5.875 0l0 5.21875l-2.640625 0l0 -12.4375l2.640625 0l0 4.875l5.875 0l0 -4.875l2.671875 0l0 12.4375l-2.671875 0zm9.293976 0.21875q-2.125 0 -3.46875 -1.3125q-1.34375 -1.3125 -1.34375 -3.421875q0 -2.015625 1.328125 -3.359375q1.34375 -1.359375 3.34375 -1.359375q1.984375 0 3.25 1.375q1.265625 1.359375 1.265625 3.59375l0 0.515625l-6.703125 0q0.109375 0.859375 0.765625 1.484375q0.671875 0.609375 1.828125 0.609375q0.5625 0 1.25 -0.234375q0.6875 -0.234375 1.15625 -0.671875l1.046875 1.53125q-0.671875 0.625 -1.671875 0.9375q-0.984375 0.3125 -2.046875 0.3125zm2.078125 -5.578125q-0.0625 -0.890625 -0.6875 -1.4375q-0.609375 -0.546875 -1.53125 -0.546875q-0.9375 0 -1.53125 0.5625q-0.59375 0.5625 -0.6875 1.421875l4.4375 0zm7.035675 5.578125q-2.5625 0 -2.5625 -2.453125l0 -4.703125l-1.484375 0l0 -2.078125l1.484375 0l0 -2.453125l2.390625 0l0 2.453125l1.828125 0l0 2.078125l-1.828125 0l0 4.0625q0 0.4375 0.203125 0.71875q0.21875 0.265625 0.609375 0.265625q0.5625 0 0.828125 -0.25l0.5 1.78125q-0.609375 0.578125 -1.96875 0.578125zm7.5089417 0q-2.125 0 -3.46875 -1.3125q-1.34375 -1.3125 -1.34375 -3.421875q0 -2.015625 1.328125 -3.359375q1.34375 -1.359375 3.34375 -1.359375q1.984375 0 3.25 1.375q1.265625 1.359375 1.265625 3.59375l0 0.515625l-6.703125 0q0.109375 0.859375 0.765625 1.484375q0.671875 0.609375 1.828125 0.609375q0.5625 0 1.25 -0.234375q0.6875 -0.234375 1.15625 -0.671875l1.046875 1.53125q-0.671875 0.625 -1.671875 0.9375q-0.984375 0.3125 -2.046875 0.3125zm2.078125 -5.578125q-0.0625 -0.890625 -0.6875 -1.4375q-0.609375 -0.546875 -1.53125 -0.546875q-0.9375 0 -1.53125 0.5625q-0.59375 0.5625 -0.6875 1.421875l4.4375 0zm4.0043945 5.359375l0 -9.015625l2.375 0l0 1.234375q0.484375 -0.59375 1.25 -1.015625q0.78125 -0.4375 1.625 -0.4375l0 2.3125l-0.65625 -0.0625q-0.640625 0 -1.28125 0.3125q-0.640625 0.296875 -0.9375 0.71875l0 5.953125l-2.375 0zm10.903748 0.21875q-2.09375 0 -3.4375 -1.34375q-1.328125 -1.34375 -1.328125 -3.390625q0 -2.046875 1.328125 -3.375q1.34375 -1.34375 3.4375 -1.34375q2.078125 0 3.421875 1.34375q1.34375 1.328125 1.34375 3.375q0 2.078125 -1.34375 3.40625q-1.34375 1.328125 -3.421875 1.328125zm0 -2.109375q1.015625 0 1.65625 -0.734375q0.65625 -0.734375 0.65625 -1.890625q0 -1.125 -0.65625 -1.859375q-0.640625 -0.75 -1.65625 -0.75q-1.0 0 -1.65625 0.71875q-0.640625 0.71875 -0.640625 1.890625q0 1.1875 0.640625 1.90625q0.65625 0.71875 1.65625 0.71875zm6.1305847 1.890625l0 -1.765625l4.0625 -5.171875l-4.0625 0l0 -2.078125l7.28125 0l0 1.71875l-4.125 5.21875l4.203125 0l0 2.078125l-7.359375 0zm9.37384 1.40625q0.296875 0.140625 0.734375 0.140625q0.953125 0 1.25 -0.65625l0.34375 -0.765625l-3.65625 -9.140625l2.53125 0l2.359375 6.265625l2.34375 -6.265625l2.5624695 0l-4.2343445 10.484375q-0.515625 1.28125 -1.390625 1.71875q-0.875 0.453125 -2.03125 0.46875q-0.65625 0 -1.171875 -0.125l0.359375 -2.125zm13.226898 2.25q-1.1875 0 -2.109375 -0.296875q-0.921875 -0.296875 -1.78125 -1.046875l1.0625 -1.71875q1.015625 1.125 2.828125 1.125q1.171875 0 1.8125 -0.609375q0.65625 -0.59375 0.65625 -1.671875l0 -0.90625q-1.125 1.40625 -2.765625 1.40625q-1.8125 0 -2.90625 -1.234375q-1.078125 -1.234375 -1.078125 -3.34375q0 -2.09375 1.078125 -3.34375q1.078125 -1.25 2.90625 -1.25q1.6875 0 2.765625 1.375l0 -1.15625l2.390625 0l0 8.40625q0 2.046875 -1.265625 3.15625q-1.265625 1.109375 -3.59375 1.109375zm0.4375 -5.828125q0.59375 0 1.15625 -0.296875q0.578125 -0.296875 0.875 -0.71875l0 -2.90625q-0.296875 -0.453125 -0.875 -0.734375q-0.5625 -0.296875 -1.15625 -0.296875q-1.0 0 -1.640625 0.65625q-0.625 0.640625 -0.625 1.828125q0 1.171875 0.625 1.828125q0.640625 0.640625 1.640625 0.640625zm10.960815 2.390625q-2.09375 0 -3.4375 -1.34375q-1.328125 -1.34375 -1.328125 -3.390625q0 -2.046875 1.328125 -3.375q1.34375 -1.34375 3.4375 -1.34375q2.078125 0 3.421875 1.34375q1.34375 1.328125 1.34375 3.375q0 2.078125 -1.34375 3.40625q-1.34375 1.328125 -3.421875 1.328125zm0 -2.109375q1.015625 0 1.65625 -0.734375q0.65625 -0.734375 0.65625 -1.890625q0 -1.125 -0.65625 -1.859375q-0.640625 -0.75 -1.65625 -0.75q-1.0 0 -1.65625 0.71875q-0.640625 0.71875 -0.640625 1.890625q0 1.1875 0.640625 1.90625q0.65625 0.71875 1.65625 0.71875zm12.599304 1.890625l0 -1.140625q-1.203125 1.359375 -3.171875 1.359375q-1.484375 0 -2.203125 -0.75q-0.703125 -0.75 -0.703125 -2.078125l0 -6.40625l2.375 0l0 5.46875q0 1.65625 1.65625 1.65625q1.21875 0 2.046875 -1.015625l0 -6.109375l2.375 0l0 9.015625l-2.375 0zm7.973816 0.21875q-1.171875 0 -2.25 -0.359375q-1.078125 -0.375 -1.78125 -1.03125l1.03125 -1.65625q0.53125 0.5 1.421875 0.859375q0.90625 0.359375 1.6875 0.359375q1.515625 0 1.515625 -0.96875q0 -0.375 -0.40625 -0.5625q-0.390625 -0.1875 -0.96875 -0.3125l-1.296875 -0.265625q-2.6875 -0.578125 -2.6875 -2.6875q0 -1.25 1.03125 -2.03125q1.046875 -0.796875 2.671875 -0.796875q2.109375 0 3.625 1.234375l-0.9375 1.625q-0.421875 -0.4375 -1.125 -0.734375q-0.703125 -0.3125 -1.546875 -0.3125q-0.65625 0 -1.046875 0.265625q-0.375 0.25 -0.375 0.625q0 0.34375 0.390625 0.515625q0.390625 0.15625 0.984375 0.28125q0.609375 0.125 1.296875 0.28125q0.6875 0.15625 1.28125 0.46875q0.59375 0.3125 0.984375 0.859375q0.40625 0.546875 0.40625 1.453125q0 1.3125 -1.078125 2.109375q-1.0625 0.78125 -2.828125 0.78125z" fill-rule="nonzero"/><path fill="#666666" d="m464.2772 273.27393q-1.734375 0 -2.78125 -1.375l0 4.59375l-2.375 0l0 -12.453125l2.375 0l0 1.140625q1.078125 -1.359375 2.78125 -1.359375q1.78125 0 2.875 1.265625q1.109375 1.25 1.109375 3.453125q0 2.171875 -1.09375 3.453125q-1.078125 1.28125 -2.890625 1.28125zm-0.75 -2.109375q1.03125 0 1.65625 -0.71875q0.625 -0.734375 0.625 -1.90625q0 -1.171875 -0.625 -1.890625q-0.625 -0.71875 -1.65625 -0.71875q-0.578125 0 -1.15625 0.296875q-0.578125 0.296875 -0.875 0.734375l0 3.1875q0.296875 0.421875 0.875 0.71875q0.578125 0.296875 1.15625 0.296875zm10.657867 2.109375q-2.09375 0 -3.4375 -1.34375q-1.328125 -1.34375 -1.328125 -3.390625q0 -2.046875 1.328125 -3.375q1.34375 -1.34375 3.4375 -1.34375q2.078125 0 3.421875 1.34375q1.34375 1.328125 1.34375 3.375q0 2.078125 -1.34375 3.40625q-1.34375 1.328125 -3.421875 1.328125zm0 -2.109375q1.015625 0 1.65625 -0.734375q0.65625 -0.734375 0.65625 -1.890625q0 -1.125 -0.65625 -1.859375q-0.640625 -0.75 -1.65625 -0.75q-1.0 0 -1.65625 0.71875q-0.640625 0.71875 -0.640625 1.890625q0 1.1875 0.640625 1.90625q0.65625 0.71875 1.65625 0.71875zm9.771179 2.109375q-1.171875 0 -2.25 -0.359375q-1.078125 -0.375 -1.78125 -1.03125l1.03125 -1.65625q0.53125 0.5 1.421875 0.859375q0.90625 0.359375 1.6875 0.359375q1.515625 0 1.515625 -0.96875q0 -0.375 -0.40625 -0.5625q-0.390625 -0.1875 -0.96875 -0.3125l-1.296875 -0.265625q-2.6875 -0.578125 -2.6875 -2.6875q0 -1.25 1.03125 -2.03125q1.046875 -0.796875 2.671875 -0.796875q2.109375 0 3.625 1.234375l-0.9375 1.625q-0.421875 -0.4375 -1.125 -0.734375q-0.703125 -0.3125 -1.546875 -0.3125q-0.65625 0 -1.046875 0.265625q-0.375 0.25 -0.375 0.625q0 0.34375 0.390625 0.515625q0.390625 0.15625 0.984375 0.28125q0.609375 0.125 1.296875 0.28125q0.6875 0.15625 1.28125 0.46875q0.59375 0.3125 0.984375 0.859375q0.40625 0.546875 0.40625 1.453125q0 1.3125 -1.078125 2.109375q-1.0625 0.78125 -2.828125 0.78125zm6.820923 -10.203125q-0.578125 0 -1.0 -0.40625q-0.40625 -0.40625 -0.40625 -1.015625q0 -0.59375 0.40625 -0.984375q0.421875 -0.40625 1.0 -0.40625q0.609375 0 1.015625 0.40625q0.40625 0.390625 0.40625 0.984375q0 0.609375 -0.40625 1.015625q-0.40625 0.40625 -1.015625 0.40625zm-1.171875 9.984375l0 -9.015625l2.375 0l0 9.015625l-2.375 0zm7.7512817 0.21875q-2.5625 0 -2.5625 -2.453125l0 -4.703125l-1.484375 0l0 -2.078125l1.484375 0l0 -2.453125l2.390625 0l0 2.453125l1.828125 0l0 2.078125l-1.828125 0l0 4.0625q0 0.4375 0.203125 0.71875q0.21875 0.265625 0.609375 0.265625q0.5625 0 0.828125 -0.25l0.5 1.78125q-0.609375 0.578125 -1.96875 0.578125zm4.4464417 -10.203125q-0.578125 0 -1.0 -0.40625q-0.40625 -0.40625 -0.40625 -1.015625q0 -0.59375 0.40625 -0.984375q0.421875 -0.40625 1.0 -0.40625q0.609375 0 1.015625 0.40625q0.40625 0.390625 0.40625 0.984375q0 0.609375 -0.40625 1.015625q-0.40625 0.40625 -1.015625 0.40625zm-1.171875 9.984375l0 -9.015625l2.375 0l0 9.015625l-2.375 0zm8.907532 0.21875q-2.09375 0 -3.4375 -1.34375q-1.328125 -1.34375 -1.328125 -3.390625q0 -2.046875 1.328125 -3.375q1.34375 -1.34375 3.4375 -1.34375q2.078125 0 3.4218445 1.34375q1.34375 1.328125 1.34375 3.375q0 2.078125 -1.34375 3.40625q-1.3437195 1.328125 -3.4218445 1.328125zm0 -2.109375q1.015625 0 1.65625 -0.734375q0.65625 -0.734375 0.65625 -1.890625q0 -1.125 -0.65625 -1.859375q-0.640625 -0.75 -1.65625 -0.75q-1.0 0 -1.65625 0.71875q-0.640625 0.71875 -0.640625 1.890625q0 1.1875 0.640625 1.90625q0.65625 0.71875 1.65625 0.71875zm12.599335 1.890625l0 -5.453125q0 -1.671875 -1.65625 -1.671875q-1.28125 0 -2.046875 1.0625l0 6.0625l-2.375 0l0 -9.015625l2.375 0l0 1.1875q0.421875 -0.53125 1.21875 -0.96875q0.8125 -0.4375 1.9375 -0.4375q1.484375 0 2.203125 0.78125q0.71875 0.765625 0.71875 2.09375l0 6.359375l-2.375 0zm7.973816 0.21875q-1.171875 0 -2.25 -0.359375q-1.078125 -0.375 -1.78125 -1.03125l1.03125 -1.65625q0.53125 0.5 1.421875 0.859375q0.90625 0.359375 1.6875 0.359375q1.515625 0 1.515625 -0.96875q0 -0.375 -0.40625 -0.5625q-0.390625 -0.1875 -0.96875 -0.3125l-1.296875 -0.265625q-2.6875 -0.578125 -2.6875 -2.6875q0 -1.25 1.03125 -2.03125q1.046875 -0.796875 2.671875 -0.796875q2.109375 0 3.625 1.234375l-0.9375 1.625q-0.421875 -0.4375 -1.125 -0.734375q-0.703125 -0.3125 -1.546875 -0.3125q-0.65625 0 -1.046875 0.265625q-0.375 0.25 -0.375 0.625q0 0.34375 0.390625 0.515625q0.390625 0.15625 0.984375 0.28125q0.609375 0.125 1.296875 0.28125q0.6875 0.15625 1.28125 0.46875q0.59375 0.3125 0.984375 0.859375q0.40625 0.546875 0.40625 1.453125q0 1.3125 -1.078125 2.109375q-1.0625 0.78125 -2.828125 0.78125z" fill-rule="nonzero"/><path fill="#000000" fill-opacity="0.0" d="m264.93176 224.13518l156.40945 0l0 60.12599l-156.40945 0z" fill-rule="evenodd"/><path fill="#666666" d="m299.681 251.05518l0 -8.71875l-3.5 8.71875l-1.15625 0l-3.515625 -8.71875l0 8.71875l-2.640625 0l0 -12.4375l3.703125 0l3.03125 7.515625l3.015625 -7.515625l3.734375 0l0 12.4375l-2.671875 0zm10.48233 0l0 -0.9375q-0.984375 1.15625 -2.84375 1.15625q-1.3125 0 -2.234375 -0.828125q-0.90625 -0.828125 -0.90625 -2.15625q0 -1.3125 0.859375 -2.109375q0.875 -0.796875 2.28125 -0.796875q1.9375 0 2.84375 1.09375l0 -1.203125q0 -0.6875 -0.546875 -1.09375q-0.53125 -0.421875 -1.421875 -0.421875q-1.5 0 -2.625 1.0625l-0.90625 -1.578125q1.640625 -1.421875 3.9375 -1.421875q1.90625 0 2.921875 0.890625q1.015625 0.875 1.015625 2.515625l0 5.828125l-2.375 0zm-1.890625 -1.375q1.296875 0 1.890625 -0.796875l0 -1.109375q-0.59375 -0.78125 -1.890625 -0.78125q-0.71875 0 -1.21875 0.359375q-0.484375 0.34375 -0.484375 1.0q0 0.625 0.484375 0.984375q0.5 0.34375 1.21875 0.34375zm11.770966 1.59375q-1.734375 0 -2.78125 -1.375l0 4.59375l-2.375 0l0 -12.453125l2.375 0l0 1.140625q1.078125 -1.359375 2.78125 -1.359375q1.78125 0 2.875 1.265625q1.109375 1.25 1.109375 3.453125q0 2.171875 -1.09375 3.453125q-1.078125 1.28125 -2.890625 1.28125zm-0.75 -2.109375q1.03125 0 1.65625 -0.71875q0.625 -0.734375 0.625 -1.90625q0 -1.171875 -0.625 -1.890625q-0.625 -0.71875 -1.65625 -0.71875q-0.578125 0 -1.15625 0.296875q-0.578125 0.296875 -0.875 0.734375l0 3.1875q0.296875 0.421875 0.875 0.71875q0.578125 0.296875 1.15625 0.296875zm11.626617 2.109375q-1.734375 0 -2.78125 -1.375l0 4.59375l-2.375 0l0 -12.453125l2.375 0l0 1.140625q1.078125 -1.359375 2.78125 -1.359375q1.78125 0 2.875 1.265625q1.109375 1.25 1.109375 3.453125q0 2.171875 -1.09375 3.453125q-1.078125 1.28125 -2.890625 1.28125zm-0.75 -2.109375q1.03125 0 1.65625 -0.71875q0.625 -0.734375 0.625 -1.90625q0 -1.171875 -0.625 -1.890625q-0.625 -0.71875 -1.65625 -0.71875q-0.578125 0 -1.15625 0.296875q-0.578125 0.296875 -0.875 0.734375l0 3.1875q0.296875 0.421875 0.875 0.71875q0.578125 0.296875 1.15625 0.296875zm10.704712 2.109375q-2.125 0 -3.46875 -1.3125q-1.34375 -1.3125 -1.34375 -3.421875q0 -2.015625 1.328125 -3.359375q1.34375 -1.359375 3.34375 -1.359375q1.984375 0 3.25 1.375q1.265625 1.359375 1.265625 3.59375l0 0.515625l-6.703125 0q0.109375 0.859375 0.765625 1.484375q0.671875 0.609375 1.828125 0.609375q0.5625 0 1.25 -0.234375q0.6875 -0.234375 1.15625 -0.671875l1.046875 1.53125q-0.671875 0.625 -1.671875 0.9375q-0.984375 0.3125 -2.046875 0.3125zm2.078125 -5.578125q-0.0625 -0.890625 -0.6875 -1.4375q-0.609375 -0.546875 -1.53125 -0.546875q-0.9375 0 -1.53125 0.5625q-0.59375 0.5625 -0.6875 1.421875l4.4375 0zm10.20755 5.359375l0 -1.15625q-1.125 1.375 -2.78125 1.375q-1.796875 0 -2.90625 -1.28125q-1.09375 -1.28125 -1.09375 -3.4375q0 -2.125 1.09375 -3.421875q1.109375 -1.3125 2.90625 -1.3125q1.6875 0 2.78125 1.375l0 -4.578125l2.375 0l0 12.4375l-2.375 0zm-2.0625 -1.890625q0.59375 0 1.171875 -0.28125q0.59375 -0.296875 0.890625 -0.734375l0 -3.1875q-0.296875 -0.453125 -0.890625 -0.734375q-0.578125 -0.296875 -1.171875 -0.296875q-1.0 0 -1.640625 0.734375q-0.625 0.71875 -0.625 1.890625q0 1.140625 0.609375 1.875q0.609375 0.734375 1.65625 0.734375zm11.567932 1.890625l0 -12.4375l2.375 0l0 12.4375l-2.375 0zm8.907532 0.21875q-2.09375 0 -3.4375 -1.34375q-1.328125 -1.34375 -1.328125 -3.390625q0 -2.046875 1.328125 -3.375q1.34375 -1.34375 3.4375 -1.34375q2.078125 0 3.421875 1.34375q1.34375 1.328125 1.34375 3.375q0 2.078125 -1.34375 3.40625q-1.34375 1.328125 -3.421875 1.328125zm0 -2.109375q1.015625 0 1.65625 -0.734375q0.65625 -0.734375 0.65625 -1.890625q0 -1.125 -0.65625 -1.859375q-0.640625 -0.75 -1.65625 -0.75q-1.0 0 -1.65625 0.71875q-0.640625 0.71875 -0.640625 1.890625q0 1.1875 0.640625 1.90625q0.65625 0.71875 1.65625 0.71875zm12.599335 1.890625l0 -5.453125q0 -1.671875 -1.65625 -1.671875q-1.28125 0 -2.046875 1.0625l0 6.0625l-2.375 0l0 -9.015625l2.375 0l0 1.1875q0.421875 -0.53125 1.21875 -0.96875q0.8125 -0.4375 1.9375 -0.4375q1.484375 0 2.203125 0.78125q0.71875 0.765625 0.71875 2.09375l0 6.359375l-2.375 0zm8.426971 3.65625q-1.1875 0 -2.109375 -0.296875q-0.921875 -0.296875 -1.78125 -1.046875l1.0625 -1.71875q1.015625 1.125 2.828125 1.125q1.171875 0 1.8125 -0.609375q0.65625 -0.59375 0.65625 -1.671875l0 -0.90625q-1.125 1.40625 -2.765625 1.40625q-1.8125 0 -2.90625 -1.234375q-1.078125 -1.234375 -1.078125 -3.34375q0 -2.09375 1.078125 -3.34375q1.078125 -1.25 2.90625 -1.25q1.6875 0 2.765625 1.375l0 -1.15625l2.390625 0l0 8.40625q0 2.046875 -1.265625 3.15625q-1.265625 1.109375 -3.59375 1.109375zm0.4375 -5.828125q0.59375 0 1.15625 -0.296875q0.578125 -0.296875 0.875 -0.71875l0 -2.90625q-0.296875 -0.453125 -0.875 -0.734375q-0.5625 -0.296875 -1.15625 -0.296875q-1.0 0 -1.640625 0.65625q-0.625 0.640625 -0.625 1.828125q0 1.171875 0.625 1.828125q0.640625 0.640625 1.640625 0.640625z" fill-rule="nonzero"/><path fill="#666666" d="m320.81082 273.05518l0 -9.015625l2.375 0l0 1.234375q0.484375 -0.59375 1.25 -1.015625q0.78125 -0.4375 1.625 -0.4375l0 2.3125l-0.65625 -0.0625q-0.640625 0 -1.28125 0.3125q-0.640625 0.296875 -0.9375 0.71875l0 5.953125l-2.375 0zm10.950623 0.21875q-2.125 0 -3.46875 -1.3125q-1.34375 -1.3125 -1.34375 -3.421875q0 -2.015625 1.328125 -3.359375q1.34375 -1.359375 3.34375 -1.359375q1.984375 0 3.25 1.375q1.265625 1.359375 1.265625 3.59375l0 0.515625l-6.703125 0q0.109375 0.859375 0.765625 1.484375q0.671875 0.609375 1.828125 0.609375q0.5625 0 1.25 -0.234375q0.6875 -0.234375 1.15625 -0.671875l1.046875 1.53125q-0.671875 0.625 -1.671875 0.9375q-0.984375 0.3125 -2.046875 0.3125zm2.078125 -5.578125q-0.0625 -0.890625 -0.6875 -1.4375q-0.609375 -0.546875 -1.53125 -0.546875q-0.9375 0 -1.53125 0.5625q-0.59375 0.5625 -0.6875 1.421875l4.4375 0zm9.410645 5.359375l0 -0.9375q-0.984375 1.15625 -2.84375 1.15625q-1.3125 0 -2.234375 -0.828125q-0.90625 -0.828125 -0.90625 -2.15625q0 -1.3125 0.859375 -2.109375q0.875 -0.796875 2.28125 -0.796875q1.9375 0 2.84375 1.09375l0 -1.203125q0 -0.6875 -0.546875 -1.09375q-0.53125 -0.421875 -1.421875 -0.421875q-1.5 0 -2.625 1.0625l-0.90625 -1.578125q1.640625 -1.421875 3.9375 -1.421875q1.90625 0 2.921875 0.890625q1.015625 0.875 1.015625 2.515625l0 5.828125l-2.375 0zm-1.890625 -1.375q1.296875 0 1.890625 -0.796875l0 -1.109375q-0.59375 -0.78125 -1.890625 -0.78125q-0.71875 0 -1.21875 0.359375q-0.484375 0.34375 -0.484375 1.0q0 0.625 0.484375 0.984375q0.5 0.34375 1.21875 0.34375zm12.817841 1.375l0 -1.15625q-1.125 1.375 -2.78125 1.375q-1.796875 0 -2.90625 -1.28125q-1.09375 -1.28125 -1.09375 -3.4375q0 -2.125 1.09375 -3.421875q1.109375 -1.3125 2.90625 -1.3125q1.6875 0 2.78125 1.375l0 -4.578125l2.375 0l0 12.4375l-2.375 0zm-2.0625 -1.890625q0.59375 0 1.171875 -0.28125q0.59375 -0.296875 0.890625 -0.734375l0 -3.1875q-0.296875 -0.453125 -0.890625 -0.734375q-0.578125 -0.296875 -1.171875 -0.296875q-1.0 0 -1.640625 0.734375q-0.625 0.71875 -0.625 1.890625q0 1.140625 0.609375 1.875q0.609375 0.734375 1.65625 0.734375zm10.041962 2.109375q-1.171875 0 -2.25 -0.359375q-1.078125 -0.375 -1.78125 -1.03125l1.03125 -1.65625q0.53125 0.5 1.421875 0.859375q0.90625 0.359375 1.6875 0.359375q1.515625 0 1.515625 -0.96875q0 -0.375 -0.40625 -0.5625q-0.390625 -0.1875 -0.96875 -0.3125l-1.296875 -0.265625q-2.6875 -0.578125 -2.6875 -2.6875q0 -1.25 1.03125 -2.03125q1.046875 -0.796875 2.671875 -0.796875q2.109375 0 3.625 1.234375l-0.9375 1.625q-0.421875 -0.4375 -1.125 -0.734375q-0.703125 -0.3125 -1.546875 -0.3125q-0.65625 0 -1.046875 0.265625q-0.375 0.25 -0.375 0.625q0 0.34375 0.390625 0.515625q0.390625 0.15625 0.984375 0.28125q0.609375 0.125 1.296875 0.28125q0.6875 0.15625 1.28125 0.46875q0.59375 0.3125 0.984375 0.859375q0.40625 0.546875 0.40625 1.453125q0 1.3125 -1.078125 2.109375q-1.0625 0.78125 -2.828125 0.78125z" fill-rule="nonzero"/><path fill="#000000" fill-opacity="0.0" d="m347.09973 168.34691l146.92914 0l0 60.12599l-146.92914 0z" fill-rule="evenodd"/><path fill="#000000" d="m395.12558 195.2669l-4.8125 -12.4375l3.015625 0l3.453125 9.5625l3.4375 -9.5625l3.015625 0l-4.78125 12.4375l-3.328125 0zm13.369568 0l0 -0.9375q-0.984375 1.15625 -2.84375 1.15625q-1.3125 0 -2.234375 -0.828125q-0.90625 -0.828125 -0.90625 -2.15625q0 -1.3125 0.859375 -2.109375q0.875 -0.796875 2.28125 -0.796875q1.9375 0 2.84375 1.09375l0 -1.203125q0 -0.6875 -0.546875 -1.09375q-0.53125 -0.421875 -1.421875 -0.421875q-1.5 0 -2.625 1.0625l-0.90625 -1.578125q1.640625 -1.421875 3.9375 -1.421875q1.90625 0 2.921875 0.890625q1.015625 0.875 1.015625 2.515625l0 5.828125l-2.375 0zm-1.890625 -1.375q1.296875 0 1.890625 -0.796875l0 -1.109375q-0.59375 -0.78125 -1.890625 -0.78125q-0.71875 0 -1.21875 0.359375q-0.484375 0.34375 -0.484375 1.0q0 0.625 0.484375 0.984375q0.5 0.34375 1.21875 0.34375zm6.6147156 1.375l0 -9.015625l2.375 0l0 1.234375q0.484375 -0.59375 1.25 -1.015625q0.78125 -0.4375 1.625 -0.4375l0 2.3125l-0.65625 -0.0625q-0.640625 0 -1.28125 0.3125q-0.640625 0.296875 -0.9375 0.71875l0 5.953125l-2.375 0zm7.8881226 -9.984375q-0.578125 0 -1.0 -0.40625q-0.40625 -0.40625 -0.40625 -1.015625q0 -0.59375 0.40625 -0.984375q0.421875 -0.40625 1.0 -0.40625q0.609375 0 1.015625 0.40625q0.40625 0.390625 0.40625 0.984375q0 0.609375 -0.40625 1.015625q-0.40625 0.40625 -1.015625 0.40625zm-1.171875 9.984375l0 -9.015625l2.375 0l0 9.015625l-2.375 0zm10.126282 0l0 -0.9375q-0.984375 1.15625 -2.84375 1.15625q-1.3125 0 -2.234375 -0.828125q-0.90625 -0.828125 -0.90625 -2.15625q0 -1.3125 0.859375 -2.109375q0.875 -0.796875 2.28125 -0.796875q1.9375 0 2.84375 1.09375l0 -1.203125q0 -0.6875 -0.546875 -1.09375q-0.53125 -0.421875 -1.421875 -0.421875q-1.5 0 -2.625 1.0625l-0.90625 -1.578125q1.640625 -1.421875 3.9375 -1.421875q1.90625 0 2.921875 0.890625q1.015625 0.875 1.015625 2.515625l0 5.828125l-2.375 0zm-1.890625 -1.375q1.296875 0 1.890625 -0.796875l0 -1.109375q-0.59375 -0.78125 -1.890625 -0.78125q-0.71875 0 -1.21875 0.359375q-0.484375 0.34375 -0.484375 1.0q0 0.625 0.484375 0.984375q0.5 0.34375 1.21875 0.34375zm12.692841 1.375l0 -5.453125q0 -1.671875 -1.65625 -1.671875q-1.28125 0 -2.046875 1.0625l0 6.0625l-2.375 0l0 -9.015625l2.375 0l0 1.1875q0.421875 -0.53125 1.21875 -0.96875q0.8125 -0.4375 1.9375 -0.4375q1.484375 0 2.203125 0.78125q0.71875 0.765625 0.71875 2.09375l0 6.359375l-2.375 0zm7.7550964 0.21875q-2.5625 0 -2.5625 -2.453125l0 -4.703125l-1.484375 0l0 -2.078125l1.484375 0l0 -2.453125l2.390625 0l0 2.453125l1.828125 0l0 2.078125l-1.828125 0l0 4.0625q0 0.4375 0.203125 0.71875q0.21875 0.265625 0.609375 0.265625q0.5625 0 0.828125 -0.25l0.5 1.78125q-0.609375 0.578125 -1.96875 0.578125z" fill-rule="nonzero"/><path fill="#000000" d="m398.2814 217.48566q-2.125 0 -3.453125 -1.34375q-1.328125 -1.34375 -1.328125 -3.390625q0 -2.03125 1.328125 -3.375q1.328125 -1.34375 3.453125 -1.34375q1.375 0 2.234375 0.5q0.875 0.5 1.328125 1.125l-1.546875 1.453125q-0.65625 -0.96875 -1.90625 -0.96875q-1.078125 0 -1.765625 0.71875q-0.671875 0.71875 -0.671875 1.890625q0 1.171875 0.671875 1.90625q0.6875 0.71875 1.765625 0.71875q1.21875 0 1.90625 -0.96875l1.546875 1.4375q-0.453125 0.640625 -1.328125 1.140625q-0.859375 0.5 -2.234375 0.5zm10.512604 -0.21875l0 -0.9375q-0.984375 1.15625 -2.84375 1.15625q-1.3125 0 -2.234375 -0.828125q-0.90625 -0.828125 -0.90625 -2.15625q0 -1.3125 0.859375 -2.109375q0.875 -0.796875 2.28125 -0.796875q1.9375 0 2.84375 1.09375l0 -1.203125q0 -0.6875 -0.546875 -1.09375q-0.53125 -0.421875 -1.421875 -0.421875q-1.5 0 -2.625 1.0625l-0.90625 -1.578125q1.640625 -1.421875 3.9375 -1.421875q1.90625 0 2.921875 0.890625q1.015625 0.875 1.015625 2.515625l0 5.828125l-2.375 0zm-1.890625 -1.375q1.296875 0 1.890625 -0.796875l0 -1.109375q-0.59375 -0.78125 -1.890625 -0.78125q-0.71875 0 -1.21875 0.359375q-0.484375 0.34375 -0.484375 1.0q0 0.625 0.484375 0.984375q0.5 0.34375 1.21875 0.34375zm6.6147156 1.375l0 -12.4375l2.375 0l0 12.4375l-2.375 0zm4.7200317 0l0 -12.4375l2.375 0l0 12.4375l-2.375 0zm5.8919067 -9.984375q-0.578125 0 -1.0 -0.40625q-0.40625 -0.40625 -0.40625 -1.015625q0 -0.59375 0.40625 -0.984375q0.421875 -0.40625 1.0 -0.40625q0.609375 0 1.015625 0.40625q0.40625 0.390625 0.40625 0.984375q0 0.609375 -0.40625 1.015625q-0.40625 0.40625 -1.015625 0.40625zm-1.171875 9.984375l0 -9.015625l2.375 0l0 9.015625l-2.375 0zm10.798157 0l0 -5.453125q0 -1.671875 -1.65625 -1.671875q-1.28125 0 -2.046875 1.0625l0 6.0625l-2.375 0l0 -9.015625l2.375 0l0 1.1875q0.421875 -0.53125 1.21875 -0.96875q0.8125 -0.4375 1.9375 -0.4375q1.484375 0 2.203125 0.78125q0.71875 0.765625 0.71875 2.09375l0 6.359375l-2.375 0zm8.426971 3.65625q-1.1875 0 -2.109375 -0.296875q-0.921875 -0.296875 -1.78125 -1.046875l1.0625 -1.71875q1.015625 1.125 2.828125 1.125q1.171875 0 1.8125 -0.609375q0.65625 -0.59375 0.65625 -1.671875l0 -0.90625q-1.125 1.40625 -2.765625 1.40625q-1.8125 0 -2.90625 -1.234375q-1.078125 -1.234375 -1.078125 -3.34375q0 -2.09375 1.078125 -3.34375q1.078125 -1.25 2.90625 -1.25q1.6875 0 2.765625 1.375l0 -1.15625l2.390625 0l0 8.40625q0 2.046875 -1.265625 3.15625q-1.265625 1.109375 -3.59375 1.109375zm0.4375 -5.828125q0.59375 0 1.15625 -0.296875q0.578125 -0.296875 0.875 -0.71875l0 -2.90625q-0.296875 -0.453125 -0.875 -0.734375q-0.5625 -0.296875 -1.15625 -0.296875q-1.0 0 -1.640625 0.65625q-0.625 0.640625 -0.625 1.828125q0 1.171875 0.625 1.828125q0.640625 0.640625 1.640625 0.640625z" fill-rule="nonzero"/><path fill="#000000" fill-opacity="0.0" d="m496.26904 284.26117l0 10.7048645l-77.322845 0l0 32.381744" fill-rule="evenodd"/><path stroke="#8e7cc3" stroke-width="4.0" stroke-linejoin="round" stroke-linecap="butt" d="m496.26904 284.26117l0 10.7048645l-77.322845 0l0 18.67337" fill-rule="evenodd"/><path fill="#8e7cc3" stroke="#8e7cc3" stroke-width="4.0" stroke-linecap="butt" d="m418.9462 313.63943l-4.498352 -4.498352l4.498352 12.35907l4.4983215 -12.35907z" fill-rule="evenodd"/></g></svg>
